<?xml version="1.0" encoding="utf-8"?>
<!-- Generator: Adobe Illustrator 25.1.0, SVG Export Plug-In . SVG Version: 6.00 Build 0)  -->
<svg version="1.1" id="Layer_1" xmlns="http://www.w3.org/2000/svg" xmlns:xlink="http://www.w3.org/1999/xlink" x="0px" y="0px"
	 viewBox="0 0 2844 2000" style="enable-background:new 0 0 2844 2000;" xml:space="preserve">
<style type="text/css">
	.st0{fill:#FFF8E9;}
	.st1{opacity:0.3;fill:#FFFFFF;}
	.st2{fill:#07085B;}
	.st3{fill:#55769F;}
	.st4{fill:#FF5B7E;}
	.st5{fill:#E03268;}
	.st6{fill:#8FD0D6;}
	.st7{fill:#CBEFEF;}
	.st8{fill:#CFE8EA;}
	.st9{fill:#74BDC1;}
	.st10{fill:#F4A640;}
	.st11{fill:#F9CC4B;}
	.st12{opacity:0.5;fill:#FFF9FF;}
	.st13{opacity:0.1;fill:#FFFFFF;}
	.st14{fill:#333333;}
	.st15{fill:#3CB4C5;}
	.st16{opacity:0.5;fill:#3CB4C5;}
	.st17{fill:#E87B50;}
	.st18{fill:#CFE4FF;}
	.st19{fill:#FDB137;}
	.st20{fill:#FFFFFF;}
	.st21{fill:#FEB546;}
	.st22{fill:#F9C27A;}
	.st23{fill:#E2881E;}
	.st24{fill:#6DB1B5;}
	.st25{fill:#FFC0BB;}
	.st26{fill:#F99893;}
	.st27{fill:#DAEEF7;}
	.st28{fill:#191919;}
	.st29{opacity:0.6;fill:#FC8D84;}
	.st30{opacity:0.3;fill:#F99893;}
	.st31{fill:#C8EEF1;}
	.st32{opacity:0.3;fill:#E87B50;}
</style>
<g>
	<path class="st0" d="M376.5,1791.2c0,0-363.8-207.6-163.6-717c200.3-509.4,718.2-376.5,910.5-605.7s579.7-578.1,1006-316.6
		c426.3,261.5,321.4,673.3,474.8,839c153.4,165.7,470.9,874.5-465.5,910.1C1202.3,1936.6,376.5,1791.2,376.5,1791.2z"/>
	<path class="st1" d="M2248.9,703.9c38.2-1.1,75.8-9.6,114-11.7c41.5-2.2,84.8,2.9,123.2-13.1c0.7-0.3,1.4-0.6,2.2-1
		c-12.1-48-26-97.9-45.1-148.3c-0.8,0.2-1.7,0.5-2.5,0.7c-24.5,7.4-47.5,19.2-72,26.4c-46,13.4-96.8,9.4-140.1-11.2
		c-48.7-23.1-87.6-65.9-139.6-80c-37.9-10.3-78.2-3.9-117.2-7.8c-39.1-4-81.9-23.8-91.4-62c-1.8-7.2-2.2-15,1-21.7
		c6.8-14,25.2-16.5,40.7-17.2c39.6-1.8,79.4-3.6,118.6,1.5c50,6.5,100.5,24.3,149.6,13c15-3.5,29.3-9.5,44.2-13.4
		c39.7-10.2,81.4-4.1,121.8,3.9c-52.1-75.1-124.1-147-227-210.1c-2.9-1.8-5.9-3.6-8.8-5.3c-39.5,21.5-74,52.7-115.5,70.5
		c-49.7,21.4-105.8,22.1-159.8,19c-32.3-1.8-67.9-4-93.6,15.7c-18.8,14.4-28.5,37.9-46.1,53.9c-21.2,19.3-50.9,25.2-78.7,32.3
		c-35.3,8.9-70.9,21.5-97.5,46.4c-26.5,24.9-41.9,64.7-29,98.7c16.3,43.2,68.4,60.3,114.4,64.2c58.9,5,119.5-2.1,176.3,14.3
		c38.6,11.2,73.2,32.6,109.2,50.4c62.3,30.7,129.3,50.6,196.5,68.3C2146.6,693.4,2197.4,705.4,2248.9,703.9z"/>
	<path class="st1" d="M320.3,887.4c10.7,5,21.4,9.9,32.2,14.9c29.8,13.8,60,27.7,92.4,32.8c29.8,4.7,60.3,1.7,90.4-1.2
		c36.6-3.6,73.6-7.3,108.7-18.3c38.7-12.1,74.6-32.8,114.1-42.1c43.5-10.1,88.8-5.7,133.4-4.2c59.3,2,119.7-1.4,175.5-21.3
		c55.9-19.9,107.1-57.9,133.1-111.2c13.7-28.2,20.7-60.6,42-83.6c22.1-23.7,56-33,80.2-54.7c35.9-32.1,43.3-91.4,16.4-131.3
		c-2.6-3.9-5.6-7.7-9.8-9.8c-6.5-3.4-14.2-2.1-21.5-1.2c-26.3,3.2-53.4-0.3-78.1-10c-20.8-8.2-39.9-20.7-60-30.4
		c-16.4,18.1-31.8,35.7-46,52.8c-19,22.6-41.1,41.7-65.8,58.2c16.9,4.6,33.4,10.9,49.1,18.8c13.1,6.7,27.1,16.8,27.9,31.5
		c0.8,14.3-11.4,25.8-23.6,33.4c-33.4,20.7-75.4,29.3-100.7,59.3c-22.3,26.5-28.6,66.7-58.1,84.9c-13.2,8.1-29,10.4-44.5,11.5
		c-51.3,3.8-105-2.6-152.5,17.1c-10.4,4.3-20.3,9.9-31,13.4c-14,4.7-28.9,5.9-43.6,6.8c-85.7,5.1-172.1,0-256.6-15.2
		C387.2,815.8,352.3,848.4,320.3,887.4z"/>
	<path class="st2" d="M2014.6,565.7c32.1,291.7-132.4,705.9-132.4,705.9S2107,1060,2102.1,809.2l-71.9-1.2c0,0,37-24.2,68.5-43.9
		C2090,698.9,2064.5,631.8,2014.6,565.7z"/>
	<path class="st3" d="M1756.7,903.1l45.4-26.8l-39.2-5.7c11.7-48.9,33-92.2,58.3-129.7c29.6,9,63.5,18.4,63.5,18.4l-37.5-53.4
		c74.9-91.9,167.3-140.2,167.3-140.2c32.1,291.7-132.4,705.9-132.4,705.9C1769.8,1128.3,1742.1,1004.9,1756.7,903.1z"/>
	<path class="st4" d="M2128,853.8c-49.2,21.2-88.8,50.3-120.5,83.5c4.5,20.3,9.4,44.8,9.4,44.8l-30.3-21.1
		c-110.4,136.2-108.9,320.4-108.9,320.4c108.4-44.7,173.2-104.1,211.2-164.3c-7.7-11.2-19.5-27.7-19.5-27.7l31,8
		c16.3-30.4,26.2-60.6,31.9-88.8c-16.1-4-34.2-9.1-34.2-9.1l38.6-18C2145.3,908.3,2128,853.8,2128,853.8z"/>
	<path class="st5" d="M2088.8,1117.1c-7.7-11.2-19.5-27.7-19.5-27.7l31,8c16.3-30.4,26.2-60.6,31.9-88.8c-16.1-4-34.2-9.1-34.2-9.1
		l38.6-18c8.7-73.1-8.6-127.6-8.6-127.6c-139.3,150.4-250.3,427.6-250.3,427.6C1986.1,1236.7,2050.9,1177.3,2088.8,1117.1z"/>
	
		<rect x="1660.3" y="1212.9" transform="matrix(0.494 -0.8695 0.8695 0.494 -190.3979 2479.5212)" class="st6" width="749.5" height="380.9"/>
	<g>
		<path class="st7" d="M2358,1183.8l-346.2,609.4l-299.7-170.3l346.2-609.4L2358,1183.8z M2003.3,1762.3l323.9-570l-260.3-147.9
			l-323.9,570L2003.3,1762.3z"/>
	</g>
	
		<ellipse transform="matrix(0.494 -0.8695 0.8695 0.494 -190.1357 2480.0615)" class="st7" cx="2035.6" cy="1403.4" rx="141.4" ry="155.4"/>
	<path class="st6" d="M2005.9,1359.1c-8.3-2.2-16.1-2.5-23.6,2.8c1,0.9,1.7,1.6,2.6,2.1c11.6,6.7,23.2,13.2,34.7,20
		c2.5,1.5,3.9,1.2,6.1-0.8c5-4.6,10.3-9,15.8-13c19.3-14.1,39.4-11.5,57.4,1.8c21.7,16,27.7,36.4,19.6,62.3
		c-1.5,4.7-0.4,6.9,3.7,8.8c3,1.4,5.8,3.2,8.9,5.1c-2.9,5-5.6,9.8-8.6,14.9c-4.5-2.6-9-5.2-13.4-7.7c-24,29.6-53,25.9-71.2,17.2
		c4.1-9.4,8.2-18.8,12.4-28.4c11.2,3.1,21.7,2.9,33.1-3.5c-6.4-3.7-12-6.9-17.5-10.1c-7.6-4.4-15.2-8.6-22.7-13.1
		c-2.8-1.7-4.6-1.6-7,0.6c-7.8,7.1-16.4,13.1-26.7,16c-21,5.8-38.6-1.3-52.8-16c-13.3-13.7-15.2-30.9-8.9-48.9
		c0.4-1.2,0.8-2.4,1.2-3.6c0.1-0.4,0.2-0.9,0.3-1.8c-3.6-2-7.2-4.1-11.2-6.4c2.9-5.1,5.6-9.8,8.7-15.2c2.7,1.5,5.5,2.9,8,4.7
		c2.7,1.9,4.3,1.2,6.3-1.2c8.8-10.8,19.8-17.7,34.1-18.6c7.5-0.5,14.8,0.7,22.3,3.8C2013.6,1340.2,2009.8,1349.4,2005.9,1359.1z
		 M2053,1402.8c13.6,7.8,26.9,15.5,40.2,23.1c4.4-9.8,0.5-21.9-9.1-28.6C2074.7,1390.8,2062.7,1392.7,2053,1402.8z M1972.9,1377.6
		c-1.4,10.6,3,20.1,10.6,23.9c8.4,4.2,18.9,2.6,24.9-3.5C1996.7,1391.3,1985,1384.6,1972.9,1377.6z"/>
	<path class="st7" d="M1920.9,1604.3c-9.9-5.6-22.5-2.2-28.2,7.8c-5.6,9.9-2.2,22.5,7.8,28.2c9.9,5.6,22.5,2.2,28.2-7.8
		C1934.3,1622.5,1930.8,1609.9,1920.9,1604.3z"/>
	<path class="st7" d="M2170.8,1164.5c-9.9-5.6-22.5-2.2-28.2,7.8s-2.2,22.5,7.8,28.2c9.9,5.6,22.5,2.2,28.2-7.8
		C2184.1,1182.7,2180.7,1170.1,2170.8,1164.5z"/>
	<path class="st6" d="M2301.7,1319.5c-1.1-0.9,26.4-46.5,26.4-46.5l-357.6,138.2l4.7,28.2L2301.7,1319.5z"/>
	
		<rect x="1840.9" y="1363" transform="matrix(0.9378 -0.3472 0.3472 0.9378 -401.4962 865.8463)" class="st6" width="749.5" height="380.9"/>
	<g>
		<path class="st7" d="M2604.1,1593.4l-657.3,243.3l-119.7-323.2l657.3-243.3L2604.1,1593.4z M1960.2,1807.6L2575,1580l-103.9-280.8
			l-614.8,227.6L1960.2,1807.6z"/>
	</g>
	
		<ellipse transform="matrix(0.9378 -0.3472 0.3472 0.9378 -401.6107 866.0013)" class="st7" cx="2216.1" cy="1553.8" rx="141.4" ry="155.4"/>
	<path class="st6" d="M2221.8,1500.7c-5-7.1-10.7-12.3-19.8-13c0.2,1.3,0.3,2.4,0.6,3.3c4.6,12.6,9.2,25.1,13.7,37.7
		c1,2.8,2.3,3.4,5.2,3.3c6.8-0.3,13.6-0.3,20.4,0.2c23.8,1.7,37.6,16.6,42.8,38.3c6.2,26.2-2.2,45.7-25.1,60.3
		c-4.2,2.7-4.8,5.1-2.8,9.2c1.4,3,2.3,6.2,3.6,9.6c-5.4,2-10.6,3.9-16.2,5.9c-1.8-4.9-3.6-9.8-5.3-14.5
		c-37.4,7.2-57.2-14.3-65.6-32.7c9.2-4.5,18.4-9.1,27.8-13.8c6.6,9.5,14.7,16.2,27.6,18.7c-2.5-7-4.7-13-6.9-19
		c-3-8.2-6.1-16.4-8.9-24.7c-1-3.1-2.5-4.2-5.8-4.1c-10.6,0.4-21-0.5-30.7-5c-19.8-9-28.7-25.9-30.1-46.3
		c-1.3-19,8.3-33.4,24.6-43.1c1.1-0.7,2.2-1.3,3.3-2c0.4-0.2,0.7-0.6,1.4-1.2c-1.4-3.9-2.9-7.8-4.4-12.1c5.5-2,10.6-3.9,16.4-6
		c1.1,2.9,2.3,5.8,3.1,8.8c0.9,3.2,2.5,3.7,5.6,3.1c13.7-2.6,26.6-0.8,38.1,7.7c6.1,4.5,10.8,10.1,14.7,17.3
		C2239.8,1491.3,2231,1495.9,2221.8,1500.7z M2229.7,1564.5c5.4,14.8,10.6,29.1,15.9,43.5c9.7-4.6,14.5-16.4,11.4-27.7
		C2254,1569.3,2243.7,1563.1,2229.7,1564.5z M2184.6,1493.7c-7.9,7.2-10.6,17.3-7.2,25.1c3.7,8.6,12.8,14.2,21.3,13.3
		C2194,1519.5,2189.4,1506.9,2184.6,1493.7z"/>
	<path class="st7" d="M1998.9,1633.6c-4-10.7-15.8-16.2-26.5-12.2s-16.2,15.8-12.2,26.5c4,10.7,15.8,16.2,26.5,12.2
		C1997.4,1656.2,2002.8,1644.3,1998.9,1633.6z"/>
	<path class="st7" d="M2473.3,1458c-4-10.7-15.8-16.2-26.5-12.2s-16.2,15.8-12.2,26.5c4,10.7,15.8,16.2,26.5,12.2
		C2471.8,1480.6,2477.2,1468.7,2473.3,1458z"/>
	
		<rect x="1763.2" y="1519.6" transform="matrix(1 -3.078862e-03 3.078862e-03 1 -5.2547 6.5905)" class="st6" width="749.5" height="380.9"/>
	<g>
		<path class="st7" d="M2488.9,1881.3l-700.9,2.2l-1.1-344.7l700.9-2.2L2488.9,1881.3z M1810.6,1860.7l655.6-2l-0.9-299.4l-655.6,2
			L1810.6,1860.7z"/>
	</g>
	
		<ellipse transform="matrix(1 -3.105823e-03 3.105823e-03 1 -5.3023 6.6491)" class="st7" cx="2138.2" cy="1710.5" rx="141.4" ry="155.4"/>
	<path class="st6" d="M2161.8,1662.7c-2.2-8.3-5.8-15.2-14.1-19.1c-0.2,1.3-0.5,2.3-0.5,3.3c0,13.4,0,26.7-0.1,40.1
		c0,2.9,0.9,4,3.7,4.9c6.5,2.1,12.9,4.5,19.1,7.2c21.8,9.8,29.6,28.5,27,50.7c-3.2,26.8-17.8,42.1-44.3,48c-4.8,1.1-6.2,3.1-5.8,7.6
		c0.3,3.3,0,6.6,0,10.3c-5.8,0-11.2,0-17.2,0c0-5.2,0-10.4,0-15.5c-37.6-6.1-48.8-33.2-50.3-53.3c10.2-1.1,20.4-2.2,30.9-3.3
		c2.9,11.2,8.3,20.2,19.5,27c0-7.4,0-13.8,0-20.2c0-8.7-0.1-17.5,0.1-26.2c0.1-3.2-0.9-4.8-4-5.8c-10-3.2-19.5-7.7-27.1-15.3
		c-15.5-15.3-18-34.2-12.3-53.8c5.3-18.3,19.3-28.5,38-32c1.2-0.2,2.5-0.5,3.7-0.7c0.5-0.1,0.9-0.3,1.7-0.6c0-4.1,0-8.3,0-12.9
		c5.9,0,11.3,0,17.5,0c0,3.1,0.2,6.2-0.1,9.3c-0.3,3.3,1.1,4.3,4.2,4.8c13.7,2.3,25.2,8.4,33.1,20.3c4.2,6.3,6.7,13.2,7.8,21.3
		C2182,1660,2172.2,1661.3,2161.8,1662.7z M2147.3,1725.3c0,15.7-0.1,31-0.1,46.3c10.7-1,19.3-10.4,20.3-22.1
		C2168.5,1738.2,2160.9,1728.7,2147.3,1725.3z M2129.4,1643.2c-9.9,4-15.9,12.6-15.4,21.1c0.5,9.3,7.1,17.7,15.4,19.8
		C2129.3,1670.7,2129.3,1657.3,2129.4,1643.2z"/>
	<path class="st7" d="M1906.8,1710.7c0-11.4-9.3-20.6-20.7-20.6s-20.6,9.3-20.6,20.7s9.3,20.6,20.7,20.6
		C1897.6,1731.4,1906.8,1722.1,1906.8,1710.7z"/>
	<path class="st7" d="M2412.7,1709.2c0-11.4-9.3-20.6-20.7-20.6c-11.4,0-20.6,9.3-20.6,20.7s9.3,20.6,20.7,20.6
		C2403.5,1729.8,2412.7,1720.6,2412.7,1709.2z"/>
	<polygon class="st6" points="2512.5,1646.4 2512.1,1518.4 1988.8,1519.5 1983.7,1489.2 2540.8,1487.4 2541.1,1636 	"/>
	
		<rect x="542.4" y="854.7" transform="matrix(0.9703 -0.2421 0.2421 0.9703 -208.402 178.4766)" class="st8" width="159.4" height="165.3"/>
	
		<rect x="55.7" y="976.1" transform="matrix(0.9703 -0.2421 0.2421 0.9703 -252.2653 64.2745)" class="st8" width="159.4" height="165.3"/>
	<path class="st9" d="M829.8,1440.7L719.5,998.2l-154.7,38.6l111.8,448.1l0.8,2.3c0.8,2.6,8.9,29.3,11.2,64.8
		c2,30.4,0.2,74.3-20,110.5c-19.6,35.3-54.3,59.3-105.8,73.2c-4.5,1-9,1.9-13.4,2.7c0,0,0,0,0,0l38.6,154.9c2.4-0.5,4.7-1,7.1-1.5
		l0,0.2c2.1-0.5,4.1-1,6.2-1.6c2.1-0.5,4.1-1,6.2-1.5l0-0.2c45.8-12.8,86-31.9,119.6-56.9c34-25.3,61.4-56.6,81.5-93.1
		c17.8-32.4,29.9-68.9,35.8-108.4c4.5-30.1,5.4-62.1,2.8-95C843.4,1488.1,833.4,1452.1,829.8,1440.7z"/>
	<path class="st4" d="M435,1720.8c-34.8-22.5-57-60.4-69.5-88.2c-14.6-32.4-20-59.8-20.5-62.5l-0.4-2.4l-111.8-448.1l-154.7,38.6
		l110.4,442.4c2.3,11.8,10.3,48.3,29.1,91.7c13.1,30.3,29,58,47.1,82.5c23.8,32.1,51.5,58.7,82.5,78.9
		c34.9,22.8,73.8,37.6,115.7,43.9c39.3,6,81.3,4.4,125.2-4.5l-38.6-154.9C503.5,1746.6,465.9,1740.8,435,1720.8z"/>
	
		<ellipse transform="matrix(0.7071 -0.7071 0.7071 0.7071 -583.5928 1857.0186)" class="st10" cx="1949.8" cy="1633" rx="271.1" ry="271.1"/>
	
		<ellipse transform="matrix(0.7071 -0.7071 0.7071 0.7071 -583.593 1857.0186)" class="st11" cx="1949.8" cy="1633" rx="243.8" ry="243.8"/>
	<g>
		<g>
			<path class="st10" d="M1952.3,1861.2c-125.8,1.3-229.3-99.9-230.7-225.8c-1.3-125.8,99.9-229.3,225.8-230.7
				s229.3,99.9,230.7,225.8C2179.4,1756.4,2078.1,1859.8,1952.3,1861.2z M1947.5,1413.1c-121.2,1.3-218.8,101-217.5,222.2
				c1.3,121.2,101,218.8,222.2,217.5c121.2-1.3,218.8-101,217.5-222.2C2168.4,1509.4,2068.7,1411.8,1947.5,1413.1z"/>
		</g>
	</g>
	<path class="st12" d="M1987,1560.8c-3.6-12.7-9.1-23.2-22-29c-0.3,2-0.8,3.6-0.8,5.1c0.2,20.5,0.6,41,0.6,61.4
		c0,4.5,1.5,6.1,5.8,7.4c10,3.1,19.9,6.6,29.4,10.7c33.6,14.6,45.9,43.1,42.3,77.2c-4.3,41.1-26.6,65-67,74.4
		c-7.4,1.7-9.5,4.9-8.8,11.8c0.5,5,0.2,10.1,0.3,15.7c-8.9,0.1-17.2,0.2-26.4,0.3c-0.1-8-0.2-16-0.3-23.7
		c-57.7-8.7-75.5-49.9-78.2-80.7c15.6-1.9,31.2-3.8,47.3-5.7c4.7,17.2,13.1,30.9,30.4,41c-0.1-11.4-0.2-21.2-0.3-31
		c-0.1-13.4-0.5-26.8-0.3-40.2c0.1-4.9-1.4-7.3-6.3-8.8c-15.5-4.8-30.1-11.5-41.9-22.9c-24-23.2-28.3-52.1-19.9-82.3
		c7.8-28.2,29-44.1,57.6-49.9c1.9-0.4,3.8-0.7,5.7-1.2c0.7-0.2,1.4-0.5,2.7-1c-0.1-6.3-0.1-12.8-0.2-19.8c9-0.1,17.4-0.2,26.8-0.3
		c0,4.7,0.4,9.5,0.1,14.3c-0.4,5,1.8,6.6,6.5,7.4c21.1,3.2,38.9,12.4,51.2,30.5c6.5,9.6,10.5,20.1,12.4,32.5
		C2017.9,1556.3,2002.8,1558.5,1987,1560.8z M1965.9,1657.1c0.3,24.1,0.5,47.6,0.8,71c16.3-1.8,29.3-16.4,30.7-34.2
		C1998.6,1676.4,1986.8,1662.1,1965.9,1657.1z M1936.8,1531.6c-15,6.4-24.2,19.7-23.3,32.6c1,14.3,11.2,27,24,30.1
		C1937.2,1573.8,1937,1553.1,1936.8,1531.6z"/>
	<g>
		<path class="st2" d="M649.9,1768c0,0,119.1-164.6,57.3-195.1c0,0-11-17.5-55.5,45c0,0-27.5,9-29-22.8
			c-1.6-31.9,43.5-80.3,14.8-108s-43.6,22.1-63.9,31.5c-20.3,9.4-10.7-117.6-38.8-131.2c-28.1-13.6-35.8,36.5-51.5,42.3
			c-15.7,5.8-62.2-142.2-137.4-114.6c-75.2,27.5,10.7,82.9,46.8,117.2c36.1,34.3-38.4,15.2-46.2,59c-7.8,43.8,125.2,8.5,113.1,51.2
			c-12,42.6-50.1,18.3-57.2,50.2c-11.5,51.5,120.2,2,117.3,37.5c-2.4,28.3-50.1,9.7-55.2,31.5C459.2,1683.5,541.9,1761.8,649.9,1768
			z"/>
		<path class="st13" d="M711.3,1575.3c-0.5-0.4-1.1-0.7-1.7-1.1c-2.3,6.8-5,14.2-8.5,21.8c-12.6,28.2-36.5,66.4-79.1,88.2
			c-10.9-23.5-24.3-48.2-40.3-73.8c11.3-64.4,33.9-100.3,50.8-119.1c1.5-1.6,2.9-3.2,4.3-4.6c-0.5-0.5-1-0.9-1.5-1.3
			c-1.4,1.4-2.8,2.9-4.2,4.5c-17,18.8-39.5,54.5-51,118.1c-0.1-0.1-0.1-0.2-0.2-0.3c-16.5-26.3-35.6-53.6-57.2-81.7
			c-0.4-2.8-4.1-30-3.9-62.5c0.2-23.4,2.4-53.1,10.9-77.8c-0.7-0.2-1.3-0.3-1.9-0.4c-8.5,24.9-10.8,54.7-10.9,78.2
			c-0.2,27.2,2.4,50.7,3.5,59.4c-16.5-21.4-34.4-43.3-53.7-65.5c-53.7-61.9-105.2-112.2-132.1-137.5c-0.6,0.3-1.2,0.7-1.8,1
			c26.7,25.1,78.5,75.5,132.5,137.7c9.1,10.5,18.4,21.6,27.9,33.2c-7.3-1.3-29.2-4.8-57.7-6c-24-1.1-56.3-0.7-89.2,5.2
			c0,0.1,0,0.2-0.1,0.3c-0.1,0.6-0.2,1.2-0.2,1.7c32.9-6,65.3-6.4,89.3-5.3c32.5,1.5,56.5,5.8,59.7,6.4c21,25.7,42.5,53.9,62.6,83.4
			c-46.3-5.8-119.9,10.2-156.2,19.2c-0.1,0.7-0.1,1.4-0.1,2c36.4-9,111.7-25.4,157.7-19c28.6,42,54.3,86.6,71.7,130.4
			c-38.7,6.3-84.7-10.9-116.6-26.5c-19.7-9.7-36.6-19.9-47.7-27.1c-0.4,0.5-0.8,1-1.1,1.6c11.1,7.2,28.1,17.5,47.9,27.2
			c32.3,15.8,78.9,33.2,118.2,26.7c7.4,18.9,13.2,37.6,17.1,55.9c0.3,0,0.7,0,1,0.1c0,0,0.3-0.4,0.8-1.1
			c-5.4-25.1-14.6-52.1-27.7-80.8c2.8-1.4,5.5-2.9,8.2-4.5c15.7-9.3,29.8-21.4,42-36.1c11.7-14,21.7-30.4,29.8-48.6
			C706.3,1589.3,709.1,1582,711.3,1575.3z"/>
	</g>
	<path class="st6" d="M726.8,1810.1c0,0-105.1-118-301.6-110l34.1,47l-54.9-43.1c0,0-113.9,9.4-191.5,37.3
		c0,0,166.8,87.9,208.9,95.6l56.2-16.7l-30.5,42c0,0,91.8,51,186.2,40.6C728.2,1892.3,726.8,1810.1,726.8,1810.1z"/>
	<path class="st14" d="M1229.9,916.3h612.2c26.7,0,48.3,21.6,48.3,48.3v894.9c0,26.7-21.6,48.3-48.3,48.3h-612.2
		c-26.7,0-48.3-21.6-48.3-48.3V964.6C1181.7,937.9,1203.3,916.3,1229.9,916.3z"/>
	<rect x="1245.5" y="997.9" class="st15" width="587.8" height="151.2"/>
	<polygon class="st16" points="1261.1,1019.6 1833.3,1019.6 1833.3,997.9 1245.5,997.9 1245.5,1149.1 1261.1,1149.1 	"/>
	<path class="st17" d="M1393,1246.7h-126.4c-11.7,0-21.1-9.5-21.1-21.1v-12.3c0-11.7,9.5-21.1,21.1-21.1H1393
		c11.7,0,21.1,9.5,21.1,21.1v12.3C1414.2,1237.3,1404.7,1246.7,1393,1246.7z"/>
	<path class="st17" d="M1602.6,1246.7h-126.4c-11.7,0-21.1-9.5-21.1-21.1v-12.3c0-11.7,9.5-21.1,21.1-21.1h126.4
		c11.7,0,21.1,9.5,21.1,21.1v12.3C1623.7,1237.3,1614.3,1246.7,1602.6,1246.7z"/>
	<path class="st17" d="M1812.2,1246.7h-126.4c-11.7,0-21.1-9.5-21.1-21.1v-12.3c0-11.7,9.5-21.1,21.1-21.1h126.4
		c11.7,0,21.1,9.5,21.1,21.1v12.3C1833.3,1237.3,1823.8,1246.7,1812.2,1246.7z"/>
	<path class="st18" d="M1346.5,1412h-71.4c-16.3,0-29.6-13.2-29.6-29.6v-63c0-16.3,13.2-29.6,29.6-29.6h71.4
		c16.3,0,29.6,13.2,29.6,29.6v63C1376,1398.8,1362.8,1412,1346.5,1412z"/>
	<path class="st18" d="M1498.9,1412h-71.4c-16.3,0-29.6-13.2-29.6-29.6v-63c0-16.3,13.2-29.6,29.6-29.6h71.4
		c16.3,0,29.6,13.2,29.6,29.6v63C1528.4,1398.8,1515.2,1412,1498.9,1412z"/>
	<path class="st18" d="M1651.3,1412h-71.4c-16.3,0-29.6-13.2-29.6-29.6v-63c0-16.3,13.2-29.6,29.6-29.6h71.4
		c16.3,0,29.6,13.2,29.6,29.6v63C1680.9,1398.8,1667.6,1412,1651.3,1412z"/>
	<path class="st18" d="M1346.5,1562.6h-71.4c-16.3,0-29.6-13.2-29.6-29.6v-63c0-16.3,13.2-29.6,29.6-29.6h71.4
		c16.3,0,29.6,13.2,29.6,29.6v63C1376,1549.4,1362.8,1562.6,1346.5,1562.6z"/>
	<path class="st18" d="M1498.9,1562.6h-71.4c-16.3,0-29.6-13.2-29.6-29.6v-63c0-16.3,13.2-29.6,29.6-29.6h71.4
		c16.3,0,29.6,13.2,29.6,29.6v63C1528.4,1549.4,1515.2,1562.6,1498.9,1562.6z"/>
	<path class="st18" d="M1651.3,1562.6h-71.4c-16.3,0-29.6-13.2-29.6-29.6v-63c0-16.3,13.2-29.6,29.6-29.6h71.4
		c16.3,0,29.6,13.2,29.6,29.6v63C1680.9,1549.4,1667.6,1562.6,1651.3,1562.6z"/>
	<path class="st19" d="M1806.7,1289.9h-77.3c-14.7,0-26.6,11.9-26.6,26.6v37.8v31.2V1536c0,14.7,11.9,26.6,26.6,26.6h77.3
		c14.7,0,26.6-11.9,26.6-26.6v-150.6v-31.2v-37.8C1833.3,1301.8,1821.4,1289.9,1806.7,1289.9z"/>
	<path class="st18" d="M1346.5,1713.2h-71.4c-16.3,0-29.6-13.2-29.6-29.6v-63c0-16.3,13.2-29.6,29.6-29.6h71.4
		c16.3,0,29.6,13.2,29.6,29.6v63C1376,1700,1362.8,1713.2,1346.5,1713.2z"/>
	<path class="st18" d="M1498.9,1713.2h-71.4c-16.3,0-29.6-13.2-29.6-29.6v-63c0-16.3,13.2-29.6,29.6-29.6h71.4
		c16.3,0,29.6,13.2,29.6,29.6v63C1528.4,1700,1515.2,1713.2,1498.9,1713.2z"/>
	<path class="st18" d="M1651.3,1713.2h-71.4c-16.3,0-29.6-13.2-29.6-29.6v-63c0-16.3,13.2-29.6,29.6-29.6h71.4
		c16.3,0,29.6,13.2,29.6,29.6v63C1680.9,1700,1667.6,1713.2,1651.3,1713.2z"/>
	<path class="st19" d="M1803.7,1713.2h-71.4c-16.3,0-29.6-13.2-29.6-29.6v-63c0-16.3,13.2-29.6,29.6-29.6h71.4
		c16.3,0,29.6,13.2,29.6,29.6v63C1833.3,1700,1820,1713.2,1803.7,1713.2z"/>
	<path class="st18" d="M1346.5,1863.8h-71.4c-16.3,0-29.6-13.2-29.6-29.6v-63c0-16.3,13.2-29.6,29.6-29.6h71.4
		c16.3,0,29.6,13.2,29.6,29.6v63C1376,1850.6,1362.8,1863.8,1346.5,1863.8z"/>
	<path class="st18" d="M1498.9,1863.8h-71.4c-16.3,0-29.6-13.2-29.6-29.6v-63c0-16.3,13.2-29.6,29.6-29.6h71.4
		c16.3,0,29.6,13.2,29.6,29.6v63C1528.4,1850.6,1515.2,1863.8,1498.9,1863.8z"/>
	<path class="st19" d="M1651.3,1863.8h-71.4c-16.3,0-29.6-13.2-29.6-29.6v-63c0-16.3,13.2-29.6,29.6-29.6h71.4
		c16.3,0,29.6,13.2,29.6,29.6v63C1680.9,1850.6,1667.6,1863.8,1651.3,1863.8z"/>
	<path class="st17" d="M1803.7,1863.8h-71.4c-16.3,0-29.6-13.2-29.6-29.6v-63c0-16.3,13.2-29.6,29.6-29.6h71.4
		c16.3,0,29.6,13.2,29.6,29.6v63C1833.3,1850.6,1820,1863.8,1803.7,1863.8z"/>
	<g>
		<path class="st20" d="M1333.1,1620.1v6.2l-30.1,63h-9.7l30-61.2v-0.2h-33.9v-7.8H1333.1z"/>
	</g>
	<g>
		<path class="st20" d="M1440.3,1671.7c0-8.7,5.2-14.9,13.7-18.5l-0.1-0.3c-7.7-3.6-11-9.6-11-15.5c0-11,9.3-18.4,21.4-18.4
			c13.4,0,20.1,8.4,20.1,17c0,5.9-2.9,12.1-11.4,16.2v0.3c8.6,3.4,13.9,9.5,13.9,17.9c0,12-10.3,20.1-23.5,20.1
			C1449.1,1690.4,1440.3,1681.8,1440.3,1671.7z M1477.6,1671.3c0-8.4-5.9-12.5-15.2-15.1c-8.1,2.3-12.5,7.7-12.5,14.3
			c-0.3,7,5,13.2,13.8,13.2C1472.2,1683.6,1477.6,1678.4,1477.6,1671.3z M1451.8,1636.7c0,6.9,5.2,10.6,13.2,12.8
			c6-2,10.5-6.3,10.5-12.6c0-5.5-3.3-11.3-11.7-11.3C1456.1,1625.6,1451.8,1630.7,1451.8,1636.7z"/>
	</g>
	<g>
		<path class="st20" d="M1487.2,1802.7c0,23.5-8.7,36.5-24.1,36.5c-13.5,0-22.7-12.7-22.9-35.6c0-23.2,10-36,24.1-36
			C1478.9,1767.6,1487.2,1780.6,1487.2,1802.7z M1449.6,1803.7c0,18,5.5,28.2,14.1,28.2c9.6,0,14.2-11.2,14.2-28.9
			c0-17-4.4-28.2-14.1-28.2C1455.6,1774.9,1449.6,1784.9,1449.6,1803.7z"/>
	</g>
	<g>
		<path class="st20" d="M1601.2,1682.7c2,0.2,4.4,0,7.6-0.3c5.4-0.7,10.5-3,14.5-6.7c4.6-4.2,7.9-10.2,9.2-18.4h-0.3
			c-3.8,4.7-9.4,7.5-16.3,7.5c-12.5,0-20.4-9.4-20.4-21.2c0-13.1,9.5-24.6,23.6-24.6c14.2,0,22.9,11.5,22.9,29.2
			c0,15.2-5.1,25.9-11.9,32.5c-5.3,5.2-12.7,8.4-20.1,9.3c-3.4,0.5-6.4,0.6-8.6,0.5V1682.7z M1604.6,1642.8
			c0,8.6,5.2,14.7,13.3,14.7c6.3,0,11.2-3.1,13.6-7.2c0.5-0.9,0.9-1.9,0.9-3.4c0-11.8-4.4-20.9-14.2-20.9
			C1610.3,1626,1604.6,1633,1604.6,1642.8z"/>
	</g>
	<g>
		<path class="st20" d="M1317.1,1535.7v-18.8H1285v-6.2l30.9-44.2h10.1v43h9.7v7.3h-9.7v18.8H1317.1z M1317.1,1509.5v-23.1
			c0-3.6,0.1-7.2,0.3-10.9h-0.3c-2.1,4-3.8,7-5.7,10.2l-16.9,23.5v0.2H1317.1z"/>
	</g>
	<g>
		<path class="st20" d="M1482.5,1474.4h-26.4l-2.7,17.8c1.6-0.2,3.1-0.4,5.6-0.4c5.3,0,10.6,1.2,14.9,3.7c5.4,3.1,9.9,9,9.9,17.8
			c0,13.5-10.8,23.6-25.8,23.6c-7.6,0-13.9-2.1-17.2-4.3l2.3-7.1c2.9,1.7,8.5,3.8,14.8,3.8c8.8,0,16.4-5.8,16.4-15
			c-0.1-8.9-6.1-15.3-19.9-15.3c-3.9,0-7,0.4-9.6,0.7l4.5-33.2h33.1V1474.4z"/>
	</g>
	<g>
		<path class="st20" d="M1635.3,1473.1c-1.9-0.1-4.4,0-7,0.4c-14.7,2.4-22.5,13.2-24.1,24.6h0.3c3.3-4.4,9-8,16.7-8
			c12.2,0,20.9,8.8,20.9,22.4c0,12.7-8.6,24.4-23,24.4c-14.8,0-24.5-11.5-24.5-29.5c0-13.6,4.9-24.4,11.7-31.2
			c5.7-5.6,13.4-9.2,22.1-10.2c2.8-0.4,5.1-0.5,6.8-0.5V1473.1z M1632.6,1513c0-9.9-5.6-15.9-14.3-15.9c-5.6,0-10.9,3.5-13.4,8.5
			c-0.6,1.1-1.1,2.4-1.1,4.2c0.2,11.4,5.4,19.8,15.2,19.8C1627.2,1529.7,1632.6,1522.9,1632.6,1513z"/>
	</g>
	<g>
		<path class="st20" d="M1308.5,1328.1h-0.2l-12,6.5l-1.8-7.1l15.1-8.1h8v69.2h-9.1V1328.1z"/>
	</g>
	<g>
		<path class="st20" d="M1441.2,1388.6v-5.7l7.3-7.1c17.7-16.8,25.7-25.8,25.8-36.2c0-7-3.4-13.5-13.7-13.5
			c-6.3,0-11.5,3.2-14.7,5.9l-3-6.6c4.8-4,11.6-7,19.6-7c14.9,0,21.2,10.2,21.2,20.1c0,12.8-9.3,23.1-23.8,37.2l-5.5,5.1v0.2h31.1
			v7.8H1441.2z"/>
	</g>
	<g>
		<path class="st20" d="M1598,1377.8c2.7,1.7,8.8,4.4,15.3,4.4c12,0,15.8-7.7,15.7-13.4c-0.1-9.7-8.8-13.8-17.9-13.8h-5.2v-7h5.2
			c6.8,0,15.4-3.5,15.4-11.7c0-5.5-3.5-10.4-12.1-10.4c-5.5,0-10.9,2.4-13.8,4.6l-2.4-6.8c3.6-2.7,10.6-5.3,18.1-5.3
			c13.6,0,19.8,8.1,19.8,16.5c0,7.1-4.3,13.2-12.8,16.3v0.2c8.5,1.7,15.4,8.1,15.4,17.8c0,11.1-8.6,20.8-25.2,20.8
			c-7.8,0-14.6-2.4-18-4.7L1598,1377.8z"/>
	</g>
	<g>
		<path class="st20" d="M1319.1,1828.9c0,4.6-3.7,8.3-8.3,8.3c-4.6,0-8.3-3.7-8.3-8.3s3.7-8.3,8.3-8.3
			C1315.4,1820.5,1319.1,1824.3,1319.1,1828.9z"/>
	</g>
	<g>
		<polygon class="st20" points="1817.6,1430.7 1773.7,1430.7 1773.7,1386.7 1762.4,1386.7 1762.4,1430.7 1718.4,1430.7 1718.4,1442 
			1762.4,1442 1762.4,1485.9 1773.7,1485.9 1773.7,1442 1817.6,1442 		"/>
	</g>
	<g>
		<polygon class="st20" points="1644.8,1828.7 1621.6,1805.5 1644.8,1782.2 1638.9,1776.2 1615.6,1799.5 1592.3,1776.2 
			1586.4,1782.2 1609.6,1805.5 1586.4,1828.7 1592.3,1834.7 1615.6,1811.5 1638.9,1834.7 		"/>
	</g>
	<g>
		<rect x="1728.5" y="1649.8" class="st20" width="73.6" height="11.3"/>
	</g>
	<g>
		<rect x="1731.2" y="1780" class="st20" width="73.6" height="11.3"/>
	</g>
	<g>
		<rect x="1731.2" y="1808.3" class="st20" width="73.6" height="11.3"/>
	</g>
	<g>
		<rect x="1098.3" y="1379.9" class="st10" width="247.9" height="104.9"/>
		<rect x="850.4" y="1379.9" class="st21" width="247.9" height="104.9"/>
		<rect x="602.5" y="1379.9" class="st22" width="247.9" height="104.9"/>
		<g>
			<path class="st23" d="M1348.2,1487.9H600.6v-111.1h747.6V1487.9z M604.5,1481.7h739.8V1383H604.5V1481.7z"/>
		</g>
	</g>
	<g>
		<rect x="1060.4" y="1589.7" class="st10" width="247.9" height="104.9"/>
		<rect x="812.4" y="1589.7" class="st21" width="247.9" height="104.9"/>
		<rect x="564.5" y="1589.7" class="st22" width="247.9" height="104.9"/>
		<g>
			<path class="st23" d="M1310.2,1697.7H562.6v-111.1h747.6V1697.7z M566.5,1691.5h739.8v-98.7H566.5V1691.5z"/>
		</g>
	</g>
	<g>
		<rect x="1098.3" y="1694.6" class="st10" width="247.9" height="104.9"/>
		<rect x="850.4" y="1694.6" class="st21" width="247.9" height="104.9"/>
		<rect x="602.5" y="1694.6" class="st22" width="247.9" height="104.9"/>
		<g>
			<path class="st23" d="M1348.2,1802.6H600.6v-111.1h747.6V1802.6z M604.5,1796.4h739.8v-98.7H604.5V1796.4z"/>
		</g>
	</g>
	<g>
		<rect x="1158.2" y="1799.5" class="st10" width="247.9" height="104.9"/>
		<rect x="910.3" y="1799.5" class="st21" width="247.9" height="104.9"/>
		<rect x="662.4" y="1799.5" class="st22" width="247.9" height="104.9"/>
		<g>
			<path class="st23" d="M1408,1907.5H660.4v-111.1H1408V1907.5z M664.3,1901.3h739.8v-98.7H664.3V1901.3z"/>
		</g>
	</g>
	<g>
		<rect x="1139.2" y="1484.8" class="st10" width="247.9" height="104.9"/>
		<rect x="891.3" y="1484.8" class="st21" width="247.9" height="104.9"/>
		<rect x="643.4" y="1484.8" class="st22" width="247.9" height="104.9"/>
		<g>
			<path class="st23" d="M1389,1592.8H641.4v-111.1H1389V1592.8z M645.3,1586.6h739.8v-98.7H645.3V1586.6z"/>
		</g>
	</g>
	<path class="st24" d="M769.1,684.5l7.5,56.4l-40-29.2L614,649l94.8,8.7c0,0,48.3,11.7,50.9,14.1
		C762.3,674.2,769.1,684.5,769.1,684.5z"/>
	<polygon class="st25" points="1526.3,1046.1 1526.3,1055.7 1548,1061.4 1548.6,1040.2 	"/>
	<path class="st25" d="M1575.6,1044.1v11.5c0,0,20.9,6.3,20.8,6.3s1.7-18.8,1.7-18.8L1575.6,1044.1z"/>
	<polygon class="st6" points="811.1,650.5 614,649 769.1,684.5 	"/>
	<polygon class="st6" points="705.8,741.2 757.4,699.7 614,649 	"/>
	<g>
		<path class="st24" d="M1012.8,989.1l-2.6-3.8c4-2.7,7.6-6,10.8-9.8l3.5,3C1021.1,982.5,1017.1,986.1,1012.8,989.1z"/>
	</g>
	<g>
		<path class="st24" d="M1038.8,951.3l-4.4-1.4c2.7-8.6,4.5-18.3,5.3-28.9l4.6,0.4C1043.5,932.3,1041.6,942.4,1038.8,951.3z
			 M1044.2,891l-4.6,0.5c-0.1-1.3-0.3-2.5-0.4-3.8c-0.6-4.3-1.4-8.7-2.5-13c-1-4-2.2-7.9-3.5-11.8l4.4-1.5c1.4,4,2.7,8.2,3.7,12.3
			c1.1,4.4,2,9,2.6,13.5C1043.9,888.3,1044,889.7,1044.2,891z M1020.4,836.4c-5-8.1-10.9-16.1-17.6-23.7l3.5-3.1
			c6.9,7.8,13,16,18.1,24.3L1020.4,836.4z M875.4,825.4c-3.2,0.8-11.2,1-16.4-2.1c-3.9-2.3-7.1-5.9-9.3-10.5l4.2-2
			c1.9,3.8,4.4,6.6,7.5,8.5c3.7,2.2,10.4,2.2,12.9,1.6c0.3-0.1,0.5-0.1,0.5-0.1c0.2-0.1,0.4-0.3,0.7-0.4l2.6,3.9
			c-0.3,0.2-0.5,0.4-0.8,0.5C876.7,825,876.2,825.2,875.4,825.4z M981.6,792c-7.4-6.3-15.4-12.3-23.8-17.7l2.5-3.9
			c8.5,5.6,16.7,11.7,24.2,18.1L981.6,792z M894.7,798.1l-4.5-1c0.6-2.9,0.9-5.8,0.9-8.7c0-4.1-0.5-8.3-1.6-12.5
			c-0.6-2.3-1.3-4.6-2.2-6.9l4.3-1.6c0.9,2.5,1.7,5,2.3,7.5c1.1,4.6,1.7,9.2,1.7,13.6C895.7,791.7,895.4,794.9,894.7,798.1z
			 M853.9,783.8l-4.2-2c4.2-8.8,12.1-16.5,21.7-21.1l0.6-0.3l2,4.2l-0.6,0.3C864.8,769.1,857.7,776,853.9,783.8z M930.9,763
			c-8.4-2.6-15.1-4.1-18.3-4.3c-3.7-0.2-7.1-0.2-10.4-0.1l-0.1-4.6c3.4-0.1,6.9-0.1,10.7,0.1c4.9,0.2,14.3,2.9,19.5,4.5L930.9,763z
			 M872.3,744.2c-6.3-7.4-13.7-13.8-22-19.1l2.5-3.9c8.7,5.5,16.4,12.3,23,20L872.3,744.2z"/>
	</g>
	<g>
		<path class="st24" d="M823.7,713.2c-4.9-1.3-9.8-2.3-14.6-2.8l0.5-4.6c5.1,0.5,10.3,1.5,15.4,2.9L823.7,713.2z"/>
	</g>
	<path class="st2" d="M1447.5,598.6l-4,25l-8.4-33.4c0,0,11.8-5.7,12.3-3.7C1447.9,588.7,1447.5,598.6,1447.5,598.6z"/>
	<polygon class="st25" points="1380.4,652.5 1376.7,695.8 1414.9,693.9 1410.5,655.6 	"/>
	<path class="st26" d="M1412.6,673.8l-2.1-18.2l-30.1-3.1l-1.3,15C1385.1,673.4,1395.9,679.6,1412.6,673.8z"/>
	<g>
		<path class="st26" d="M1436,623.3c-2.3,4.8-1.1,10.1,2.7,11.9c3.8,1.8,8.7-0.5,11-5.3c2.3-4.8,1.1-10.1-2.7-11.9
			C1443.3,616.2,1438.3,618.6,1436,623.3z"/>
		<path class="st25" d="M1432.8,651.8c1.3-2,2.5-4.2,3.5-6.5c2.7-6.1,4.3-12.7,5.3-18.5c0.2-1.2,0.5-2.5,0.8-3.7
			c1.2-4.9,1.5-10.2,0.7-15.7c-2.7-17.7-16.9-31.8-34.6-34.3c-23.9-3.3-45,14.4-46.4,37.8c-2.5-1.6-5.3-2.1-7.9-1.1
			c-5,1.9-7.1,8.4-4.8,14.6c2.3,6.2,8.2,9.7,13.2,7.9c0.7-0.3,1.3-0.6,1.9-1c0.8,20.1,16.1,36.5,35.8,37.4
			c9.6,0.4,18.5-2.9,25.5-8.8c0.5-0.3,0.9-0.7,1.5-1.2C1429.2,656.7,1431.2,654.3,1432.8,651.8z"/>
		<path class="st26" d="M1411.8,613.7c0.1,2.3,0.1,4.6,0.2,6.9c0.1,2.2,0.4,4.5,1.3,6.1l0.2,0.2c0.1,0.1,0.1,0.1,0.2,0.3
			c0.2,0.3,0.5,0.5,0.6,0.9c0.4,0.6,0.6,1.4,0.6,2.1c0.1,1.5-0.8,2.9-1.8,3.8c-2.1,1.8-4.8,1.9-7,1.4c2.3-0.4,4.5-1.2,5.7-2.7
			c0.6-0.7,1-1.6,0.8-2.3c0-0.4-0.2-0.8-0.4-1.1c-0.1-0.2-0.3-0.3-0.4-0.5l-0.3-0.4l-0.3-0.5c-0.7-1.2-1-2.5-1.1-3.7
			c-0.1-1.2-0.1-2.4,0-3.6C1410.4,618.2,1410.9,615.9,1411.8,613.7z"/>
		<path class="st14" d="M1398.3,616.8c-0.1,2-1.8,3.5-3.7,3.4c-2-0.1-3.5-1.8-3.4-3.7c0.1-2,1.8-3.5,3.7-3.4
			C1396.8,613.2,1398.4,614.8,1398.3,616.8z"/>
		<path class="st14" d="M1428.7,620.2c-0.1,2-1.8,3.5-3.7,3.4c-2-0.1-3.5-1.8-3.4-3.7c0.1-2,1.8-3.5,3.7-3.4
			C1427.3,616.6,1428.8,618.3,1428.7,620.2z"/>
		<path class="st26" d="M1392.3,640.9c0.9,0.8,1.9,1.6,2.9,2.2c1,0.7,2.1,1.3,3.2,1.8c2.2,1.1,4.5,1.8,6.9,2.1
			c2.4,0.3,4.8,0.1,7.2-0.5c2.3-0.7,4.6-1.7,6.7-3c-0.9,0.8-2,1.5-3,2.2c-1.1,0.6-2.2,1.1-3.4,1.6c-1.2,0.4-2.4,0.7-3.7,0.8
			c-1.3,0.1-2.5,0.1-3.8,0c-2.5-0.3-5-1.2-7.1-2.4C1395.9,644.4,1393.9,642.8,1392.3,640.9z"/>
		<path class="st2" d="M1402.7,608.7c-1.8-0.6-3.5-1-5.2-1.2c-1.7-0.3-3.3-0.3-4.9-0.1c-1.6,0.2-3.2,0.6-4.8,1.3
			c-0.8,0.3-1.5,0.7-2.4,1.1c-0.8,0.4-1.5,0.9-2.4,1.3c0.4-0.8,1-1.6,1.6-2.4c0.7-0.7,1.3-1.4,2.2-1.9c1.6-1.2,3.5-1.9,5.5-2.1
			c2-0.2,4,0.1,5.9,0.8C1399.9,606.1,1401.6,607.2,1402.7,608.7z"/>
		<path class="st2" d="M1418.4,610.5c1.4-1.3,3.3-2,5.2-2.4c1.9-0.4,4-0.3,5.9,0.4c1.9,0.6,3.7,1.7,5,3.2c0.7,0.7,1.2,1.5,1.7,2.3
			c0.5,0.8,0.8,1.7,1.1,2.6c-0.8-0.6-1.4-1.2-2.1-1.8c-0.7-0.5-1.4-1.1-2.1-1.5c-1.4-1-2.9-1.6-4.4-2.2c-1.5-0.5-3.2-0.8-4.9-0.9
			C1422.1,610.2,1420.3,610.3,1418.4,610.5z"/>
	</g>
	<path class="st5" d="M1401.4,855.5c0,0-8,54,44.2,63.5c52.2,9.4,117.2,6.6,117.2,6.6l9,124.1l27.3,1.4c0,0,70.2-172.5-27-199.4
		l-87.3,0.4l-35.9-2.6c0,0-36.4-9-36.8-7.3C1411.7,844,1402.3,856.4,1401.4,855.5z"/>
	<path class="st4" d="M1353.4,855.8c0,0-8,54,44.2,63.5c52.2,9.4,117.2,6.6,117.2,6.6l9,124.1l27.3,1.4c0,0,70.2-172.5-27-199.4
		l-87.3,0.4l-35.9-2.6c0,0-36.4-9-36.8-7.3C1363.7,844.3,1354.3,856.7,1353.4,855.8z"/>
	<path class="st14" d="M1419.2,678.5c0,0,35.9,4.6,45.1,12c9.1,7.4,53.1,116.4,53.1,116.4l-36.5,42.8l-77.6,0.6
		c0,0-58.2,31.4-94.7,1.7c-36.5-29.7-17.7-133,3.4-155.2c21.1-22.3,58.8-21.7,58.8-21.7S1404.9,699,1419.2,678.5z"/>
	<path class="st20" d="M1349.6,732.7c1.3,5.9,2.1,12,2.6,18c0.3,3,0.4,6.1,0.6,9.1c0.1,3,0.2,6.1,0.1,9.1
		c-0.1,6.1-0.5,12.2-1.5,18.2c-1,6-2.5,12-5.3,17.4c1.9-5.8,2.8-11.7,3.5-17.7c0.7-6,0.9-12,1-18c0.1-6,0-12-0.2-18.1
		C1350.2,744.8,1349.9,738.8,1349.6,732.7z"/>
	<path class="st20" d="M1457.1,728.7c1.6,8.8,3.4,17.6,5.1,26.4c1.8,8.8,3.7,17.6,5.8,26.2c2.1,8.7,4.4,17.3,7.3,25.8
		c1.4,4.2,3,8.4,4.8,12.5c1.8,4.1,4,8,6.9,11.4c-3.3-3.1-5.7-7-7.9-10.9c-2.1-4-4-8.1-5.5-12.4c-1.6-4.2-3-8.5-4.3-12.8
		c-1.3-4.3-2.4-8.7-3.5-13.1c-1-4.4-2-8.8-2.9-13.2c-0.9-4.4-1.7-8.8-2.4-13.3C1459,746.6,1457.9,737.7,1457.1,728.7z"/>
	<path class="st25" d="M1475.2,825c-0.2-1.8-13.9-3.8-19-4.1c-3.8-0.2-29.1-1-37.7-1.4l0.6,2.2l-0.1,9.8l-1.4,6.5
		c7.6,0.5,26,1.2,29.9,2c5.1,1,14,4.9,14,4.9s3.7-0.8-1-2.9c-3.8-1.6-6.4-4.2-7.6-5.4c-0.6-0.7,0.1-2,0.5-1.9
		c12.8,3.4,14.1,3.9,14.1,3.9s15.1-0.1,0.1-3.5c-9-2-12.2-3.2-13-4.2c-0.3-0.4,0.3-1.9,0.8-1.9c7.8-0.5,21.8,2.3,17.9,0.5
		c-3.1-1.5-12.9-3.1-16.8-3.7c-0.2,0-0.6-1.5,0.4-1.5C1464.5,823.6,1475.4,826.7,1475.2,825z"/>
	<path class="st20" d="M1340.8,803.1c3.2,0.8,6.3,1.6,9.4,2.3c3.1,0.8,6.3,1.3,9.5,2c6.4,1.2,12.7,2.2,19.1,3.1
		c6.4,0.8,12.8,1.6,19.3,2.2c6.4,0.6,12.9,1.2,19.3,1.5l0.9,0l0.2,0.7c0.5,2.2,0.9,4.2,1.2,6.4c0.3,2.1,0.4,4.3,0.4,6.5
		c0,2.2-0.2,4.3-0.6,6.5c-0.4,2.1-1,4.2-1.9,6.2l-0.1,0.2l-0.1,0.1l-7,4.7c-2.3,1.6-4.7,3.1-7.1,4.7c2.2-1.8,4.4-3.5,6.7-5.2
		l6.7-5.2l-0.2,0.3c0.7-1.9,1.2-3.9,1.5-6c0.2-2.1,0.4-4.1,0.3-6.2c-0.1-2.1-0.3-4.2-0.6-6.2c-0.3-2-0.7-4.1-1.2-6.1l1,0.8
		c-3.4-0.1-6.5-0.3-9.8-0.5c-3.2-0.2-6.5-0.5-9.7-0.8c-6.5-0.7-12.9-1.5-19.3-2.5c-6.4-1-12.8-2.3-19.1-3.8
		c-3.2-0.8-6.3-1.6-9.4-2.6C1346.9,805.3,1343.8,804.2,1340.8,803.1z"/>
	<path class="st6" d="M1637.5,752.4h-140.4l-39.8,97.1h-48.5c-1.9,0-3.5,1.9-3.4,3.4c0.1,1.9,1.5,3.4,3.4,3.4h182L1637.5,752.4z"/>
	<path class="st27" d="M1567.9,807.8c-0.8,4.1-4.4,6.9-8.1,6.2c-3.6-0.7-5.9-4.7-5.1-8.8c0.8-4.1,4.4-6.9,8.1-6.2
		C1566.5,799.8,1568.8,803.7,1567.9,807.8z"/>
	<path class="st2" d="M1448.2,574.9c0,0,12,0.4-0.6-9.7c-12.6-10.1-46.3-22-68-10.6c0,0-4.3-9.2-10.6-7c-6.3,2.2,4.1,8.5,4.1,8.5
		s-8-0.3-10.4,3.7c-1.8,2.9,3.1,3,5.8,2.9c-4.5,0.8-22,11.8-13.2,46.9c3.1-0.7,20.8-26.4,20.8-26.4s40.5,22.5,36.5,4.6
		c0,0,42,26.2,36,4.6C1448.6,592.4,1464.9,593.6,1448.2,574.9z"/>
	<path class="st2" d="M1355.2,609.8c0,0,3.4-1.2,7,1.7c3.6,2.9,3.2,12.9,3.2,12.9s17.2,11.1,15.4-35.9c-1.9-50-14.4,4-14.4,4
		L1355.2,609.8z"/>
	<polygon class="st21" points="580,546.3 475.1,688.6 513,706.7 467.1,821.4 580.2,689.9 535.7,672.3 	"/>
	<path class="st25" d="M848.6,1367.5l21.8-13.5l18.9,11.4l-6.6,4.7l-22.9,3.2c0,0-8.9-1.1-9.3-1.4
		C850.1,1371.6,848.6,1367.5,848.6,1367.5z"/>
	<path class="st4" d="M848.6,1367.5l-5.5,3.6c-2.6,1.6-1.4,5.6,1.6,5.6l41.9,0.2c1.5,0,2.7-1.2,2.7-2.7l0-8.8
		C861.3,1374.1,851.7,1371.4,848.6,1367.5z"/>
	<path class="st25" d="M940.5,1368.3l21.8-13.5l18.9,11.4l-6.6,4.7l-22.9,3.2c0,0-8.9-1.1-9.3-1.4
		C942,1372.4,940.5,1368.3,940.5,1368.3z"/>
	<path class="st4" d="M940.5,1368.3l-5.5,3.6c-2.6,1.6-1.4,5.6,1.6,5.6l41.9,0.2c1.5,0,2.7-1.2,2.7-2.7l0-8.8
		C953.2,1374.9,943.6,1372.2,940.5,1368.3z"/>
	<polygon class="st21" points="38.1,779.6 117.2,891.5 139.8,868 212.9,929.8 143.8,814.5 120,842.9 	"/>
	<polygon class="st21" points="286.4,614 273.8,715.1 297.9,713.6 307.1,784.2 327,686.1 299.7,689.8 	"/>
	<path class="st4" d="M1154.4,997.3c0,0,13.5-8.8,28.8,0c15.3,8.8,15.3,38.6,9.3,45.7s0.3,16.8-11.8,26
		c-12.1,9.3-31.3,12.7-42.3,1.8s-2.9-35.1-2.9-35.1L1154.4,997.3z"/>
	<path class="st25" d="M984.8,1096.3c-0.3,0.6-1.1,0.7-1.5,0.2c-3-4.3-12.4-17.7-13.6-17.2c-1.5,0.6,6.6,12.8,5.7,14
		c-0.9,1.2-8.5-10.9-10-10c-1.5,0.9,5.8,11.7,5.3,12.3c-0.5,0.6-8.6-9-9.8-9c-1.2,0,6.2,11.3,5.8,12.2c-0.4,0.9-8.1-5.2-8.7-4.6
		c-0.6,0.6-1.1,0.9,12.3,19.6c0,0,5.8,5.9,6.2,8.3l7.1,2.2l7.2-7.1c0,0,0.7-29.7-0.3-30.4C989.5,1086.2,988.7,1086.7,984.8,1096.3z"
		/>
	<polygon class="st28" points="1010.1,1273.9 982.7,1367.6 949.6,1358.3 960.6,1279.7 994.9,1256.2 	"/>
	<path class="st2" d="M1117.1,1081.6c0,0-57.5,70.8-67.3,82l-58.3-57.5c0,0-11.8,6.5-17.8,13.5c0,0,23.5,54.3,43.8,68.5l40.5,27.3
		l-7.8,18.5l14.5,11.3l7.6-18.3l20.9-46.3l19.8-61.5l3.8-30.5L1117.1,1081.6z"/>
	<path class="st20" d="M1116.9,1088.6c0,0-24.3,39.5-29.3,54.8s-1,16.5-3.3,35c-2.2,18.5-19.3,68-19.3,68l28.3,19
		c0,0,15.3-48.8,15.3-50.8s14.3-91.3,14.3-91.3l11.8-33.3L1116.9,1088.6z"/>
	<path class="st14" d="M1090.6,1263.4c0,0-48.5-43.5-86-52.3c-37.5-8.8-138.4,143.4-138.4,143.4l24.1,17.4c0,0,87.3-62.8,103.8-90.8
		c0,0,70.9,93.5,94.7,95.7c23.8,2.2,50.5-2.8,82.1-40.7C1206.7,1293.1,1090.6,1263.4,1090.6,1263.4z"/>
	<path class="st25" d="M1138.9,1050.1l10.8,29c0,0-7.8,17.7-33.9,11.2c0,0,2.7-6.2-1.7-18.6
		C1109.6,1059.1,1138.9,1050.1,1138.9,1050.1z"/>
	<path class="st29" d="M1138.9,1050.1l5,13.5c-2.3,10.1-10.9,17.3-27.3,20c-0.1-3-0.7-7-2.5-12
		C1109.6,1059.1,1138.9,1050.1,1138.9,1050.1z"/>
	<path class="st20" d="M989.9,1252.8c-0.5,2.4-0.7,4.8-0.7,7.2c0,2.4,0.2,4.9,0.6,7.3c0.4,2.4,0.9,4.8,1.6,7.1
		c0.6,2.4,1.5,4.6,2.4,6.9l0.6-0.5c-1.3-0.9-2.5-1.9-3.7-3c-1.2-1.1-2.3-2.2-3.4-3.4c-1.1-1.2-2.1-2.4-3.1-3.6c-1-1.2-2-2.5-2.9-3.8
		c0.8,1.4,1.7,2.7,2.7,4c0.9,1.3,2,2.6,3,3.8c1.1,1.2,2.2,2.4,3.4,3.5c1.2,1.1,2.4,2.2,3.8,3.1l1.1,0.7l-0.5-1.2
		c-0.9-2.2-1.7-4.5-2.4-6.8c-0.7-2.3-1.2-4.7-1.6-7c-0.4-2.4-0.7-4.8-0.8-7.2C989.5,1257.6,989.6,1255.2,989.9,1252.8z"/>
	<path class="st26" d="M1079.1,1030.8c2.3,4.7,1.1,10-2.7,11.8c-3.8,1.8-8.6-0.5-10.9-5.2c-2.3-4.7-1.1-10,2.7-11.8
		C1071.9,1023.8,1076.8,1026.1,1079.1,1030.8z"/>
	<path class="st25" d="M1082.3,1058.9c-1.3-2-2.5-4.1-3.4-6.4c-2.7-6-4.3-12.6-5.2-18.3c-0.2-1.2-0.5-2.4-0.8-3.6
		c-1.2-4.9-1.5-10.1-0.7-15.5c2.6-17.5,16.7-31.4,34.2-33.9c23.6-3.3,44.4,14.2,45.9,37.4c2.4-1.6,5.2-2.1,7.8-1.1
		c4.9,1.8,7,8.3,4.7,14.4c-2.3,6.1-8.1,9.6-13,7.8c-0.7-0.3-1.3-0.6-1.9-1c-0.8,19.8-15.9,36-35.3,37c-9.5,0.4-18.3-2.9-25.1-8.6
		c-0.5-0.3-0.9-0.7-1.4-1.2C1085.8,1063.7,1083.9,1061.4,1082.3,1058.9z"/>
	<path class="st26" d="M1103,1021.3c0.1,2.3,0.2,4.5,0.1,6.8c-0.1,1.1-0.1,2.2-0.3,3.3c-0.2,1.1-0.4,2.1-0.9,2.9l-0.2,0.3
		c-0.1,0.1-0.1,0.2-0.2,0.3c-0.2,0.3-0.4,0.5-0.6,0.8c-0.2,0.3-0.3,0.6-0.4,0.9c-0.1,0.3-0.2,0.7-0.2,1c-0.1,1.4,0.7,2.7,1.6,3.5
		c0.9,0.8,2.1,1.3,3.2,1.6c1.2,0.2,2.3,0.2,3.5,0c-1.1-0.1-2.2-0.3-3.3-0.7c-1-0.4-1.9-0.9-2.6-1.7c-0.7-0.8-1.1-1.7-1-2.6
		c0-0.2,0-0.4,0.1-0.7c0-0.2,0.2-0.4,0.3-0.6c0.1-0.2,0.3-0.4,0.4-0.6c0.1-0.2,0.4-0.5,0.6-0.8c0.7-1.1,0.9-2.3,1.1-3.5
		c0.1-1.2,0.1-2.3,0-3.5C1104.1,1025.7,1103.7,1023.5,1103,1021.3z"/>
	<path class="st14" d="M1116.4,1024.3c0.1,1.9,1.7,3.4,3.7,3.3s3.4-1.7,3.4-3.7c-0.1-1.9-1.7-3.4-3.7-3.4
		C1117.8,1020.8,1116.3,1022.4,1116.4,1024.3z"/>
	<path class="st14" d="M1086.3,1027.7c0.1,1.9,1.7,3.4,3.7,3.3c1.9-0.1,3.4-1.7,3.4-3.7c-0.1-1.9-1.7-3.4-3.7-3.3
		C1087.7,1024.1,1086.2,1025.8,1086.3,1027.7z"/>
	<path class="st30" d="M1118,1051.1c0,0-5.1-1.6-9.7,1.7c0,0-5.2-3-9.2,0.2c0,0,2.2,7.5,10.5,6.7
		C1118,1058.8,1118,1051.1,1118,1051.1z"/>
	<path class="st26" d="M1122.3,1048.2c-0.9,0.8-1.9,1.5-2.9,2.2c-1,0.7-2,1.3-3.1,1.8c-2.2,1-4.5,1.8-6.8,2.1
		c-2.4,0.3-4.8,0.1-7.1-0.5c-2.3-0.6-4.5-1.7-6.6-3c0.9,0.8,1.9,1.5,3,2.1c1.1,0.6,2.2,1.1,3.4,1.5c1.2,0.4,2.4,0.7,3.7,0.8
		c1.2,0.1,2.5,0.1,3.8,0c2.5-0.3,4.9-1.2,7-2.4C1118.7,1051.6,1120.7,1050,1122.3,1048.2z"/>
	<path class="st4" d="M1112,1016.4c1.8-0.6,3.5-1,5.1-1.2c1.7-0.3,3.3-0.3,4.9-0.1c1.6,0.2,3.2,0.6,4.7,1.2c0.8,0.3,1.5,0.7,2.3,1.1
		c0.8,0.4,1.5,0.9,2.4,1.3c-0.4-0.8-1-1.6-1.6-2.3c-0.7-0.7-1.3-1.4-2.1-1.9c-1.5-1.2-3.5-1.9-5.5-2.1c-2-0.2-4,0.1-5.8,0.8
		C1114.7,1013.8,1113.1,1014.9,1112,1016.4z"/>
	<path class="st4" d="M1096.5,1018.1c-1.4-1.3-3.2-2-5.1-2.4c-1.9-0.4-3.9-0.2-5.8,0.4c-1.9,0.6-3.7,1.7-4.9,3.1
		c-0.7,0.7-1.2,1.5-1.7,2.3c-0.4,0.8-0.8,1.7-1.1,2.6c0.8-0.6,1.4-1.2,2.1-1.7c0.7-0.5,1.3-1.1,2.1-1.5c1.4-1,2.9-1.6,4.4-2.1
		c1.5-0.5,3.1-0.8,4.8-0.8C1092.9,1017.9,1094.6,1017.9,1096.5,1018.1z"/>
	<g>
		
			<ellipse transform="matrix(0.7071 -0.7071 0.7071 0.7071 -534.9061 1010.8192)" class="st10" cx="952.7" cy="1151.1" rx="123.5" ry="123.5"/>
		
			<ellipse transform="matrix(4.568368e-02 -0.999 0.999 4.568368e-02 -240.7066 2050.2312)" class="st11" cx="952.7" cy="1151.1" rx="111.1" ry="111.1"/>
		<g>
			<g>
				<path class="st10" d="M991.6,1247.5c-53.2,21.4-113.9-4.4-135.3-57.6c-21.4-53.2,4.4-113.9,57.6-135.3
					c53.2-21.4,113.9,4.4,135.3,57.6C1070.6,1165.4,1044.8,1226.1,991.6,1247.5z M915.3,1058.2c-51.2,20.6-76.1,79.1-55.5,130.3
					c20.6,51.2,79.1,76.1,130.3,55.5c51.2-20.6,76.1-79.1,55.5-130.3C1025,1062.4,966.5,1037.6,915.3,1058.2z"/>
			</g>
		</g>
		<path class="st12" d="M956.5,1114.3c-3.6-4.8-7.7-8.3-14.2-8.6c0.2,0.9,0.3,1.6,0.5,2.3c3.5,8.7,7,17.3,10.4,26
			c0.7,1.9,1.7,2.3,3.7,2.2c4.7-0.3,9.5-0.5,14.3-0.3c16.7,0.6,26.6,10.7,30.8,25.8c5,18.2-0.5,32-16.1,42.7c-2.8,2-3.2,3.7-1.8,6.5
			c1.1,2,1.8,4.3,2.7,6.6c-3.8,1.5-7.3,2.9-11.2,4.5c-1.4-3.4-2.7-6.7-4-10c-25.9,5.9-40.3-8.7-46.6-21.3
			c6.3-3.4,12.6-6.8,19.1-10.3c4.8,6.5,10.7,10.9,19.7,12.4c-1.9-4.8-3.6-9-5.3-13.1c-2.3-5.7-4.7-11.3-6.8-17
			c-0.8-2.1-1.8-2.9-4.1-2.7c-7.4,0.5-14.7,0.1-21.6-2.8c-14-5.9-20.7-17.4-22.1-31.6c-1.3-13.3,5-23.5,16.2-30.7
			c0.7-0.5,1.5-0.9,2.2-1.4c0.3-0.2,0.5-0.4,1-0.9c-1.1-2.7-2.2-5.4-3.4-8.4c3.8-1.5,7.3-3,11.3-4.6c0.8,2,1.8,4,2.4,6.1
			c0.7,2.2,1.9,2.5,4,2c9.5-2.1,18.5-1.2,26.8,4.5c4.3,3,7.8,6.8,10.6,11.7C968.9,1107.3,962.8,1110.7,956.5,1114.3z M963.5,1158.7
			c4.1,10.2,8.1,20.1,12.1,30c6.6-3.5,9.7-11.8,7.3-19.6C980.6,1161.4,973.2,1157.3,963.5,1158.7z M930.4,1110.2
			c-5.3,5.2-7,12.4-4.5,17.7c2.8,5.9,9.2,9.6,15.2,8.8C937.6,1128.1,934,1119.3,930.4,1110.2z"/>
	</g>
	<path class="st25" d="M996.5,1173.7c0.3,0.7-0.3,1.4-1.1,1.3c-5.6-1.2-23.3-4.8-24-3.5c-0.7,1.6,15,5.2,15.2,6.9
		c0.2,1.6-15.1-2.3-15.6-0.4c-0.5,1.9,13.5,5,13.6,5.8c0.1,0.9-13.7-0.7-14.7,0.2c-1,0.9,13.5,4.3,13.9,5.4c0.4,1-10.4,2-10.5,2.9
		c0,0.9-0.2,1.6,24.7,6.4l9.9,1.5l8.7-3.2l0.4-11.2c0,0-21.9-24.3-23.2-24.1C992.6,1161.9,992.3,1163,996.5,1173.7z"/>
	<path class="st3" d="M1148.9,1074.2c0,0,49.5,59.6,42.8,164.7c-6.8,105-7.9,105.8-7.9,105.8s-30.4-3.3-52.9-21.3
		c-22.5-18-50-30.3-50-30.3l18.3-59.3c0,0-23.8,0.8-41-6.5c-17.3-7.3-53.3-26.5-53.3-26.5s3-17.8,6.8-23.3c0,0,45.8,14,68.8,14.3
		C1080.4,1191.9,1107.1,1109.4,1148.9,1074.2z"/>
	<path class="st2" d="M1145.3,1093.4c-7.5,6.5-14.5,13.7-21,21.2c-6.5,7.5-12.6,15.5-18.2,23.8l-2.1,3.1c-0.7,1-1.4,2.1-2,3.1
		l-3.9,6.4c-0.7,1.1-1.2,2.2-1.8,3.3l-1.8,3.3l-1.8,3.3c-0.6,1.1-1.1,2.2-1.6,3.4l-3.2,6.8l-2.8,6.9l-1.4,3.5l-1.2,3.5
		c-0.8,2.4-1.6,4.7-2.3,7.1c0.9-2.3,1.8-4.6,2.7-6.9l1.3-3.5l1.5-3.4l3.1-6.8l3.4-6.6c0.6-1.1,1.1-2.2,1.7-3.3l1.8-3.2l1.8-3.2
		c0.6-1.1,1.2-2.2,1.9-3.2l3.9-6.3c0.6-1.1,1.3-2.1,2-3.1l2.1-3.1c5.5-8.2,11.5-16.2,17.8-23.8l4.8-5.7c1.6-1.9,3.3-3.7,4.9-5.6
		C1138.3,1100.5,1141.8,1096.9,1145.3,1093.4z"/>
	<path class="st2" d="M1166.7,1135c-4.1,9.2-8.4,18.2-12.9,27.2c-2.3,4.5-4.6,8.9-7,13.3c-2.4,4.4-4.8,8.8-7.4,13.1
		c-2.5,4.3-5.2,8.6-8,12.7c-1.4,2.1-2.8,4.1-4.3,6.2c-1.5,2-3,4-4.5,6c-3.1,3.9-6.4,7.7-10,11.2c-3.6,3.5-7.5,6.6-12,8.9
		c4.6-2,8.7-5,12.6-8.3c3.8-3.4,7.2-7.1,10.4-10.9c3.3-3.9,6.2-7.9,9.1-12.1c2.8-4.2,5.5-8.4,8.1-12.7c5.1-8.7,9.8-17.6,14.1-26.7
		C1159.3,1153.7,1163.2,1144.4,1166.7,1135z"/>
	<path class="st4" d="M1070.7,984.5c5.8-12.6,17.1-19.7,26.8-23.7c12-4.9,25.4-5.2,37.5-0.7c34.1,12.8,27.3,50.4,25.7,57.5
		c-1.6-0.4-3.9-0.3-6.6,1.1c-1.1,0.6-2.1,1.3-2.8,1.9c-6.6-2-8.6-13-12.1-18.3c-4.7-7.2-22.7-0.3-30.5-5.5
		c-7.8-5.1-9.1-10.4-9.1-10.4c-30,4.8-27.8,38.6-27.8,38.6c-1.3-0.3-4.3-5.2-4.3-5.2S1060,1007.6,1070.7,984.5z"/>
	<polygon class="st25" points="2185.6,1461.7 2121.5,1502 2116.7,1881 2129.4,1889.8 2142,1887 2178.4,1637.8 2208.1,1476.9 	"/>
	<path class="st25" d="M2315.9,1833.2c-28.7-77.1-78.7-129.6-78.7-129.6s9.4-25.3,19-108.8c9.6-83.5-31-136-31-136l-72,21.5
		c0,0,36.6,218.8,42.5,232.7c4.6,10.9,63.2,89.3,88.3,122.7l0,0.6l11.4,14.5v0l0,0l10.8,13.7l12.7-5.8l2.2-15.9L2315.9,1833.2z"/>
	<path class="st14" d="M2121.4,1496.6c0,0-16.8,128.7-15,224.8c0,0,65.1,10.3,112.9,6.7l2.1-55l10.3,51.9c0,0,23.6-1,34.4-9.8
		c0,0-6.6-54.9-4.6-97.1c2-42.2,0.2-95.3-13.7-130.6s-91.1,3.4-91.1,3.4L2121.4,1496.6z"/>
	<path class="st14" d="M2208.4,1172.6c0,0,14.8,11.3,19.2,27.3c3.8,13.7,20.7,11.3,31.3,29.6c11.7,20.3,28.5,50.6-9.9,71.1
		c-23.8,12.7-61.7,22.5-70.3,13.9s-29.1-5.1-24.5-95.3c0,0,56-31.7,56.6-31.8S2208.4,1172.6,2208.4,1172.6z"/>
	<path class="st5" d="M2133.8,1430.8l6.9-29.5l-17.1-45.8c0,0-9.3,36.3-23.3,68.7l-51.4,6.2l-10.9,2.1c0,0,70.3,40.1,89.5,10.6
		c2,0.5,3.3,0.8,3.3,0.8l1.8-7.8c1-1.7,1.9-3.5,2.4-5.3L2133.8,1430.8z"/>
	<polygon class="st25" points="2199.2,1271.1 2197.8,1292.7 2168.3,1298.9 2163.1,1298.9 2164.2,1272.9 2195.5,1261.9 	"/>
	<path class="st25" d="M2152.9,1305.8c-1.3,14.6,4.7,17.3,4.7,17.3l44.6-33.1c-27.7,2.7-45.6,5.7-45.6,5.7
		S2154.3,1306.2,2152.9,1305.8z"/>
	<path class="st14" d="M2226.9,1224c0,0,9.1-37.3-12.6-51.3c-21.7-14-44.7-12.4-60.3-4.1c-15.7,8.4-25,37.6-18,54.3l52-15.9
		L2226.9,1224z"/>
	<path class="st26" d="M2199.8,1265.4c0,0-0.6,6.3-1.2,14.1c-11.2,12.3-32.3,8.1-35.1,6.9c0.2-3.9,0-11.9,0-11.9L2199.8,1265.4z"/>
	<path class="st26" d="M2142.7,1229.5c1.8,5,0.1,10.3-3.9,11.8c-4,1.5-8.8-1.4-10.6-6.4s-0.1-10.3,3.9-11.8
		C2136.1,1221.6,2140.8,1224.5,2142.7,1229.5z"/>
	<path class="st25" d="M2143.1,1258.5c-1.2-2.2-2.1-4.5-2.9-6.9c-2.2-6.5-3.1-13.3-3.5-19.2c-0.1-1.3-0.2-2.5-0.4-3.8
		c-0.7-5.1-0.5-10.5,0.9-15.9c4.4-17.6,20.2-30.5,38.4-31.2c24.5-1,44,19,43.2,42.8c2.6-1.4,5.6-1.6,8.1-0.4
		c4.8,2.4,6.4,9.2,3.4,15.2c-3,6-9.3,9-14.1,6.7c-0.7-0.3-1.3-0.8-1.8-1.2c-2.8,20.2-19.9,35.3-39.8,34.3
		c-9.7-0.5-18.4-4.8-24.8-11.4c-0.4-0.4-0.9-0.8-1.4-1.4C2146.3,1263.9,2144.5,1261.3,2143.1,1258.5z"/>
	<path class="st14" d="M2180.4,1230c-0.1,2.1,1.5,4,3.7,4.1c2.1,0.1,4-1.5,4.1-3.7s-1.5-4-3.7-4.1S2180.5,1227.9,2180.4,1230z"/>
	<path class="st14" d="M2145.8,1230c-0.1,2.1,1.5,4,3.7,4.1c2.1,0.1,4-1.5,4.1-3.7s-1.5-4-3.7-4.1
		C2147.8,1226.2,2145.9,1227.9,2145.8,1230z"/>
	<path class="st14" d="M2177.1,1223.5c1.8-0.9,3.6-1.6,5.5-2.1c1.9-0.4,3.8-0.6,5.7-0.4c0.9,0.1,1.9,0.3,2.8,0.5
		c0.5,0.1,0.9,0.3,1.4,0.4c0.2,0.1,0.4,0.2,0.7,0.3c0.2,0.1,0.4,0.2,0.7,0.3c1.7,0.8,3.4,1.9,5,3.1c-1.2-1.6-2.7-3-4.5-4.1
		c-0.9-0.5-1.8-1-2.8-1.3c-1-0.3-2-0.6-3-0.7c-2.1-0.2-4.2,0.1-6.1,0.8c-1,0.3-1.9,0.8-2.8,1.3
		C2178.6,1222.2,2177.8,1222.8,2177.1,1223.5z"/>
	<path class="st14" d="M2161.4,1223.5c-0.7-0.7-1.5-1.3-2.4-1.8c-0.9-0.5-1.8-1-2.8-1.3c-1.9-0.7-4-1-6.1-0.8c-1,0.1-2.1,0.3-3,0.7
		c-1,0.3-1.9,0.8-2.8,1.3c-1.8,1.1-3.3,2.5-4.5,4.1c1.6-1.2,3.2-2.3,5-3.1c0.2-0.1,0.4-0.2,0.7-0.3c0.2-0.1,0.4-0.2,0.7-0.3
		c0.5-0.2,0.9-0.3,1.4-0.4c0.9-0.3,1.8-0.4,2.8-0.5c1.9-0.2,3.8,0,5.7,0.4C2157.8,1221.9,2159.7,1222.6,2161.4,1223.5z"/>
	<path class="st20" d="M2250.3,1354.3c-0.9-1-1.8-2.1-2.6-3.2c-0.8-1.1-1.6-2.3-2.2-3.5c-0.7-1.2-1.3-2.5-1.8-3.8
		c-0.6-1.3-1-2.6-1.4-4c0.2,1.4,0.5,2.8,0.9,4.2c0.2,0.7,0.5,1.4,0.7,2c0.3,0.7,0.6,1.3,0.9,2c0.6,1.3,1.4,2.5,2.2,3.7
		c0.7,0.9,1.4,1.8,2.2,2.7c-0.7,0.1-1.5,0.2-2.2,0.3c-1,0-2.1,0-3.1-0.1c-0.5-0.1-1-0.2-1.5-0.3c-0.5-0.1-1-0.3-1.5-0.5
		c-1-0.3-1.9-0.8-2.8-1.4c0.8,0.7,1.7,1.3,2.7,1.7c1,0.5,2,0.8,3,1.1s2.1,0.3,3.2,0.3c1.1,0,2.2-0.1,3.3-0.4l0.8-0.2L2250.3,1354.3z
		"/>
	<path class="st26" d="M2166,1228.2c-1.1,1.8-2,3.6-2.9,5.5c-0.8,1.9-1.6,3.8-2.2,5.9c-0.3,1-0.5,2-0.6,3.2c0,0.3,0,0.6,0,0.9
		c0,0.2,0.1,0.3,0.1,0.5c0.1,0.2,0.1,0.3,0.2,0.5c0.1,0.1,0.1,0.2,0.2,0.2l0.2,0.1c0.1,0.1,0.2,0.2,0.3,0.3c0.2,0.2,0.5,0.3,0.7,0.5
		c0.9,0.6,1.9,1,2.9,1.3c1,0.3,2,0.6,3,0.8c-1.9-0.9-3.8-1.8-5.4-2.9c-0.2-0.1-0.4-0.3-0.6-0.5l-0.3-0.2l-0.1-0.1c0,0,0,0,0-0.1
		c-0.1-0.2-0.1-0.7-0.1-1.2c0.1-0.9,0.3-1.9,0.6-2.9c0.5-2,1.2-3.9,1.9-5.8C2164.7,1232.2,2165.4,1230.2,2166,1228.2z"/>
	<path class="st4" d="M2243.3,1416.1C2243.3,1416.1,2243.3,1416.1,2243.3,1416.1c5.3-29.5,7.6-61.2,7.6-61.2
		c0.3-7.3-8.4-17.4-8.7-23.1c-7.4-6-9.1-10.9-9.1-10.9l-12.9-26.7c0,0-8.6-4.2-8.6-4.2c-6.7-0.6-10,0-10,0l-22.1,16.6
		c-9.2,7-22.5,0.6-22.9-10.9l0,0c0,0,0,0,0,0c-19.4,15.5-32.4,22.6-35.1,47.5c-1.9,17.4,7.6,32.2,8.6,48.8l-8.7,104.7
		c0,0,73.1,0.8,126.4-9.1C2247.8,1487.5,2242.8,1457.9,2243.3,1416.1z"/>
	<g>
		<path class="st14" d="M2115.4,1492l-76.3,4.6c-4.8,0.3-10.2-2.8-11.9-6.9l-40.1-92.9c-1.8-4.1,0.7-7.7,5.5-8l76.3-4.6
			c4.8-0.3,10.2,2.8,11.9,6.9l40.1,92.9C2122.6,1488.2,2120.2,1491.7,2115.4,1492z"/>
		<path class="st31" d="M2046.2,1390.3l-26,1.6c-2.1,0.1-4.4-1.2-5.2-3l-0.7-1.7c-0.8-1.8,0.3-3.3,2.4-3.4l26-1.6
			c2.1-0.1,4.4,1.2,5.2,3l0.7,1.7C2049.4,1388.6,2048.3,1390.2,2046.2,1390.3z"/>
	</g>
	<path class="st25" d="M2017.8,1468.3l-0.3,0.1c-1.9,0.8-4.2,0.1-5.2-1.7l-12-20.8c-0.6-1-0.6-2.3,0.1-3.2c2-3,6.4-9.2,7.9-9
		c2,0.3-4,10.6-3.2,10.8c0.8,0.2,9.3-6.7,10-5.5c0.6,1-6.8,9-6.5,9.6c0.3,0.6,9-4.4,9.9-3.5c0.8,0.8-7.3,7.3-7.2,7.7L2017.8,1468.3z
		"/>
	<path class="st25" d="M2010.7,1453.1c0,0,8.6-2.6,9.4-1.7s-9.4,6.5-9.4,6.2C2010.8,1457.4,2010.7,1453.1,2010.7,1453.1z"/>
	<path class="st14" d="M2224,1218.8l-1-0.1l-0.7-8.1l-3.6-7.5c0,0-14.2-20.2-14.7-20.7c-0.5-0.5-11.3-7-12-7.3s-15.8,2.2-15.8,2.2
		s-26.7-5.7-22.1,9.2s24,22.6,25,22c-3.2-3.3-3.5-12.8-3.5-12.8c15,17.3,43.2,28.7,43.2,28.7s3-2.3,8.1-0.4L2224,1218.8z"/>
	<path class="st20" d="M2157.3,1253.9c1,4.6,5.5,8,10.8,7.9s9.6-3.7,10.5-8.3L2157.3,1253.9z"/>
	<path class="st25" d="M2256.6,1362.2c0,0-10.8-59.6-44.1-72c-9-3.4-18.6,3.3-18.7,12.9c-0.1,13.7,42.1,115.2,37.7,120.4
		c-5.9,7.1-114,32.6-117.7,33.5l-12.9-1.2c-10.6-0.7-21.9-2.2-22.5-1.4c-0.9,1.1-0.3,2.2,11,7.5c0.7,0.3,0.8,1.4,0.1,1.8
		c-5.4,3.3-22.2,13.7-21.7,15.3c0.6,1.8,15.9-7.1,17.3-6c1.4,1.2-13.7,9.5-12.7,11.4c1,1.9,14.5-6.2,15.2-5.6
		c0.7,0.6-11.4,9.8-11.5,11.2c-0.1,1.4,14-6.7,15.1-6.2s-6.8,9.4-6.1,10.2c0.7,0.8-1.9,1.9,21.5-13c0,0,5.8-3.9,7.9-5.5
		c0,0,134.3-19,142.7-29.6C2272.6,1426.2,2256.6,1362.2,2256.6,1362.2z"/>
	<path class="st5" d="M2256.6,1362.2c0,0-10.8-59.6-44.1-72c-9-3.4-18.6,3.3-18.7,12.9c-0.1,13.7,42.1,115.2,37.7,120.4
		c-5.9,7.1-114,32.6-117.7,33.5l-0.2,0c1.3,5.9,2.8,12.2,4.8,17.9c22.2-3.2,131.2-19.5,138.7-29
		C2272.6,1426.2,2256.6,1362.2,2256.6,1362.2z"/>
	<path class="st20" d="M1992.2,288.3c-5.2-22.6-25.4-39.5-49.7-39.5c-4.4,0-8.8,0.6-12.9,1.6c-11.9-25.5-37.9-43.3-67.9-43.3
		c-7.8,0-15.3,1.2-22.3,3.4c-16.2-26.8-45.6-44.7-79.2-44.7c-40,0-74,25.4-86.9,60.9c-9.1-5.1-19.6-8-30.8-8
		c-35,0-63.4,28.4-63.4,63.4c0,2.1,0.1,4.1,0.3,6.2H1992.2z"/>
	<path class="st20" d="M1226.4,493.1c2.8-12,13.5-20.9,26.3-20.9c2.4,0,4.6,0.3,6.8,0.9c6.3-13.5,20-22.9,35.9-22.9
		c4.1,0,8.1,0.6,11.8,1.8c8.6-14.2,24.1-23.7,41.9-23.7c21.1,0,39.1,13.4,46,32.2c4.8-2.7,10.4-4.2,16.3-4.2
		c18.5,0,33.5,15,33.5,33.5c0,1.1-0.1,2.2-0.2,3.3H1226.4z"/>
	<path class="st20" d="M1909.5,467.8c2.8-12,13.5-20.9,26.3-20.9c2.3,0,4.6,0.3,6.8,0.9c6.3-13.5,20-22.9,35.9-22.9
		c4.1,0,8.1,0.6,11.8,1.8c8.6-14.2,24.1-23.7,41.9-23.7c21.1,0,39.1,13.4,46,32.2c4.8-2.7,10.4-4.2,16.3-4.2
		c18.5,0,33.5,15,33.5,33.5c0,1.1-0.1,2.2-0.2,3.3H1909.5z"/>
	<path class="st20" d="M2216.6,803.1c3.3-14.5,16.3-25.3,31.8-25.3c2.8,0,5.6,0.4,8.2,1.1c7.7-16.4,24.3-27.7,43.5-27.7
		c5,0,9.8,0.8,14.3,2.2c10.4-17.2,29.2-28.7,50.7-28.7c25.6,0,47.4,16.3,55.7,39c5.9-3.3,12.6-5.1,19.8-5.1
		c22.4,0,40.6,18.2,40.6,40.6c0,1.3-0.1,2.6-0.2,3.9H2216.6z"/>
	<path class="st25" d="M2092.6,1889.9l26.5-16.4l22.9,13.8l-8,5.7l-27.8,3.9c0,0-10.8-1.4-11.3-1.7
		C2094.5,1894.9,2092.6,1889.9,2092.6,1889.9z"/>
	<path class="st2" d="M2092.6,1889.9l-6.7,4.3c-3.1,2-1.7,6.8,1.9,6.8l50.9,0.2c1.8,0,3.3-1.4,3.3-3.2l0.1-10.7
		C2108.1,1898,2096.4,1894.6,2092.6,1889.9z"/>
	<path class="st25" d="M2299.3,1887.4l-0.7-32.6l22.6-11.8l1.1,9.8l-10.1,26.2c0,0-6.5,8.8-7,9
		C2304.6,1888.3,2299.3,1887.4,2299.3,1887.4z"/>
	<path class="st2" d="M2299.3,1887.4l0.5,8c0.2,3.7,5.1,4.8,6.9,1.6l25.1-44.3c0.9-1.6,0.3-3.5-1.2-4.4l-9.3-5.2
		C2313.9,1877.8,2305.3,1886.4,2299.3,1887.4z"/>
	<g>
		<path class="st20" d="M1610.3,1091.8l-45.5-17.6c-1.1-0.4-1.7-1.7-1.3-2.8l0.3-0.9c0.4-1.1,1.7-1.7,2.8-1.3l45.5,17.6
			c1.1,0.4,1.7,1.7,1.3,2.8l-0.3,0.9C1612.7,1091.7,1611.4,1092.3,1610.3,1091.8z"/>
		<path class="st14" d="M1572.8,1054.2l-7,13.2c-0.9,1.6-0.5,3.6,0.8,4l43.7,16.9c1.1,0.4,2.5,0.2,3.6-0.9c1.1-1.1,2.1-3.1,1.2-6.7
			c-1.8-7-14.1-13.4-18.6-20.5l-20.4-7.9C1575,1052,1573.6,1052.7,1572.8,1054.2z"/>
		<g>
			<path class="st20" d="M1590.3,1067.1L1590.3,1067.1c-0.2-0.3-0.2-0.9,0.2-1.2c1.6-1.6,6.1-5.2,11.2-2.1c0.3,0.2,0.3,0.7,0.1,1.1
				l0,0c-0.2,0.4-0.6,0.6-0.9,0.4c-4.6-2.7-8.4,0.5-9.7,1.8C1590.9,1067.4,1590.5,1067.4,1590.3,1067.1z"/>
		</g>
		<g>
			<path class="st20" d="M1594.1,1070.7L1594.1,1070.7c-0.2-0.3-0.2-0.9,0.2-1.2c1.6-1.6,6.1-5.2,11.2-2.1c0.3,0.2,0.3,0.7,0.1,1.1
				l0,0c-0.2,0.4-0.6,0.6-0.9,0.4c-4.6-2.7-8.4,0.5-9.7,1.8C1594.7,1070.9,1594.3,1070.9,1594.1,1070.7z"/>
		</g>
		<g>
			<path class="st20" d="M1597.7,1074L1597.7,1074c-0.2-0.3-0.2-0.9,0.2-1.2c1.6-1.6,6.1-5.2,11.2-2.1c0.3,0.2,0.3,0.7,0.1,1.1l0,0
				c-0.2,0.4-0.6,0.6-0.9,0.4c-4.6-2.7-8.4,0.5-9.7,1.8C1598.3,1074.2,1597.9,1074.2,1597.7,1074z"/>
		</g>
		<path class="st32" d="M1578.2,1076c0.9-12.5-4.6-16.1-7.9-17.1l-4.5,8.5c-0.9,1.6-0.5,3.6,0.8,4L1578.2,1076z"/>
	</g>
	<g>
		<path class="st20" d="M1564,1092l-46.6-14.4c-1.2-0.4-1.8-1.6-1.5-2.8l0.3-0.9c0.4-1.2,1.6-1.8,2.8-1.5l46.6,14.4
			c1.2,0.4,1.8,1.6,1.5,2.8l-0.3,0.9C1566.4,1091.7,1565.1,1092.3,1564,1092z"/>
		<path class="st14" d="M1524,1057l-6.1,13.7c-0.7,1.7-0.3,3.6,1,4l44.8,13.8c1.2,0.4,2.5,0,3.6-1.2c1.1-1.2,1.8-3.3,0.7-6.7
			c-2.3-6.9-15-12.3-20-19.2l-20.9-6.4C1526,1054.6,1524.7,1055.5,1524,1057z"/>
		<g>
			<path class="st20" d="M1542.3,1068.7L1542.3,1068.7c-0.3-0.3-0.2-0.9,0.1-1.2c1.5-1.7,5.7-5.6,11-2.9c0.3,0.2,0.4,0.7,0.2,1.1
				l0,0c-0.2,0.4-0.6,0.6-0.9,0.5c-4.7-2.4-8.4,1.1-9.6,2.5C1542.9,1068.9,1542.5,1069,1542.3,1068.7z"/>
		</g>
		<g>
			<path class="st20" d="M1546.4,1072L1546.4,1072c-0.3-0.3-0.2-0.9,0.1-1.2c1.5-1.7,5.7-5.6,11-2.9c0.3,0.2,0.4,0.7,0.2,1.1l0,0
				c-0.2,0.4-0.6,0.6-0.9,0.5c-4.7-2.4-8.4,1.1-9.6,2.5C1547,1072.2,1546.6,1072.2,1546.4,1072z"/>
		</g>
		<g>
			<path class="st20" d="M1550.2,1075L1550.2,1075c-0.3-0.3-0.2-0.9,0.1-1.2c1.5-1.7,5.7-5.6,11-2.9c0.3,0.2,0.4,0.7,0.2,1.1l0,0
				c-0.2,0.4-0.6,0.6-0.9,0.5c-4.7-2.4-8.4,1.1-9.6,2.5C1550.8,1075.2,1550.4,1075.3,1550.2,1075z"/>
		</g>
		<path class="st32" d="M1530.9,1078.4c0-12.6-5.7-15.7-9.1-16.5l-3.9,8.8c-0.7,1.7-0.3,3.6,1,4L1530.9,1078.4z"/>
	</g>
</g>
</svg>
