<?xml version="1.0" encoding="utf-8"?>
<!-- Generator: Adobe Illustrator 25.1.0, SVG Export Plug-In . SVG Version: 6.00 Build 0)  -->
<svg version="1.1" id="Layer_1" xmlns="http://www.w3.org/2000/svg" xmlns:xlink="http://www.w3.org/1999/xlink" x="0px" y="0px"
	 viewBox="0 0 666 592" style="enable-background:new 0 0 666 592;" xml:space="preserve">
<style type="text/css">
	.st0{fill:#004568;}
	.st1{fill:#89BA45;}
	.st2{fill:#0CA4A5;}
	.st3{fill:#1B93D0;}
</style>
<g>
	<g>
		<polyline class="st0" points="556,525.9 459.3,525.2 410.9,442.2 459.4,358.2 555.5,358.5 604.5,441.9 556,525.9 		"/>
	</g>
	<g>
		<polyline class="st1" points="363.2,191.5 266.1,191.4 218.1,107.7 266.3,24.4 362.7,24 411.3,108.1 363.2,191.5 		"/>
	</g>
	<g>
		<polyline class="st2" points="230.9,358.4 169.8,358.1 121.5,275.1 170,191.1 235.5,191.3 394.8,191.3 394.8,191.3 459.6,191.1 
			507.6,274.8 459.4,358.2 396.3,358.5 396.3,358.5 266.6,358.8 266.6,358.8 237,358.4 230.9,358.4 230.9,358.4 		"/>
	</g>
	<g>
		<polyline class="st3" points="138.7,525.7 73.2,525.5 25.3,441.8 73.4,358.4 169.8,358.1 169.8,358.1 266.6,358.8 266.6,358.8 
			363,358.5 410.9,442.2 362.8,525.5 304.1,525.7 304.1,525.7 138.7,525.7 138.7,525.7 		"/>
	</g>
</g>
</svg>
