<?xml version="1.0" encoding="utf-8"?>
<!-- Generator: Adobe Illustrator 25.1.0, SVG Export Plug-In . SVG Version: 6.00 Build 0)  -->
<svg version="1.1" id="Layer_1" xmlns="http://www.w3.org/2000/svg" xmlns:xlink="http://www.w3.org/1999/xlink" x="0px" y="0px"
	 viewBox="0 0 1220 273.33" style="enable-background:new 0 0 1220 273.33;" xml:space="preserve">
<style type="text/css">
	.st0{fill:#FFFFFF;}
	.st1{display:none;}
	.st2{display:inline;fill:#004568;}
	.st3{display:inline;fill:#89BA45;}
	.st4{display:inline;fill:#0CA4A5;}
	.st5{display:inline;fill:#1B93D0;}
	.st6{fill:#004568;}
	.st7{fill:#89BA45;}
	.st8{fill:#0CA4A5;}
	.st9{fill:#1B93D0;}
</style>
<g>
	<path class="st0" d="M344.65,194.98h-68.23V84.12h21.04v92.75h47.19V194.98z"/>
	<path class="st0" d="M431.39,194.98h-72.04V84.12h71.31v16.49h-51.33v30.05h41.26v16.08h-41.26v31.03h52.06V194.98z"/>
	<path class="st0" d="M535.76,194.98h-22.34l-23.39-56.45l-21.44,28.43v28.02h-19.98V84.12h19.98v58.24
		c2.54-3.95,4.39-6.69,5.52-8.2l36.79-50.03h20.22l-26.31,36.47L535.76,194.98z"/>
	<path class="st0" d="M632.98,194.98H613v-48.16h-42.32v48.16H550.7V84.12h19.98v45.56H613V84.12h19.98V194.98z"/>
	<path class="st0" d="M744.34,194.98h-21.36l-8.85-26.4h-42.64l-8.69,26.4h-17.06l36.79-110.87h24.61L744.34,194.98z M708.76,152.58
		l-16.16-49.46l-16.16,49.46H708.76z"/>
	<path class="st0" d="M746.04,168.26l19.41-4.14c2.33,10.99,11.26,16.49,26.8,16.49c7.09,0,12.55-1.41,16.37-4.22
		s5.73-6.31,5.73-10.48c0-3.03-0.87-5.83-2.6-8.41c-1.73-2.57-5.44-4.59-11.13-6.05l-21.2-5.52c-7.26-1.89-12.62-4.05-16.08-6.46
		c-3.47-2.41-6.24-5.81-8.33-10.19c-2.08-4.39-3.13-9.07-3.13-14.05c0-9.91,3.68-17.85,11.05-23.84c7.36-5.98,16.78-8.98,28.26-8.98
		c9.53,0,18.04,2.09,25.54,6.25c7.5,4.17,12.28,10.07,14.33,17.71l-19,4.71c-2.92-8.39-9.75-12.59-20.47-12.59
		c-6.23,0-10.98,1.3-14.25,3.9c-3.28,2.6-4.91,5.9-4.91,9.91c0,6.33,5.14,10.78,15.43,13.32l18.84,4.71
		c11.42,2.87,19.09,7.11,22.99,12.71c3.9,5.6,5.85,11.79,5.85,18.56c0,10.88-4.1,19.45-12.31,25.71c-8.2,6.25-18.83,9.38-31.88,9.38
		c-10.99,0-20.62-2.3-28.87-6.9C754.23,185.18,748.75,178.01,746.04,168.26z"/>
	<path class="st0" d="M924.73,194.98h-72.04V84.12H924v16.49h-51.33v30.05h41.26v16.08h-41.26v31.03h52.06V194.98z"/>
	<path class="st0" d="M1075.07,84.12l-29.65,110.87h-20.96l-22.09-81.55l-20.06,81.55h-20.55L931.47,84.12h21.2l21.44,80.81
		l19.98-80.81h20.22l22.09,80.81l21.04-80.81C1057.44,84.12,1075.07,84.12,1075.07,84.12z"/>
	<path class="st0" d="M1170.54,194.98h-21.36l-8.85-26.4h-42.64l-8.69,26.4h-17.06l36.79-110.87h24.61L1170.54,194.98z
		 M1134.97,152.58l-16.16-49.46l-16.16,49.46H1134.97z"/>
</g>
<g class="st1">
	<polyline class="st2" points="177.99,622.56 177.99,663.33 142.75,683.64 107.42,663.33 107.42,622.56 142.75,602.26 
		177.99,622.56 	"/>
	<polyline class="st3" points="36.93,704.02 36.93,744.72 1.61,765.11 -33.64,744.72 -33.64,704.02 1.61,683.64 36.93,704.02 	"/>
	<polyline class="st4" points="23.89,615.06 23.89,615.06 26.27,616.43 36.93,622.56 36.93,622.59 84.38,649.99 84.38,650 
		107.42,663.33 107.42,704.02 72.18,724.41 48.45,710.69 48.45,710.7 -9.73,677.11 -33.64,663.33 -33.64,622.56 1.61,602.26 
		23.89,615.06 	"/>
	<polyline class="st5" points="25.6,534.63 25.64,534.58 86.12,569.44 86.07,569.52 107.42,581.87 107.42,622.56 72.18,642.95 
		36.93,622.56 36.93,622.55 1.71,602.19 1.61,602.26 -33.64,581.87 -33.64,541.17 1.61,520.79 25.6,534.63 	"/>
	
		<text transform="matrix(1 0 0 1 227.9938 698.3757)" class="st2" style="font-family:'FranklinGothic-Medium'; font-size:166.3403px;">LEKHASE</text>
	
		<text transform="matrix(1 0 0 1 893.5138 698.3757)" class="st2" style="font-family:'FranklinGothic-Medium'; font-size:166.3403px; letter-spacing:-4;">W</text>
	
		<text transform="matrix(1 0 0 1 1035.1238 698.3757)" class="st2" style="font-family:'FranklinGothic-Medium'; font-size:166.3403px;">A</text>
</g>
<g>
	<g>
		<polyline class="st6" points="214.24,117.72 214.24,158.49 179,178.8 143.67,158.49 143.67,117.72 179,97.42 214.24,117.72 		"/>
	</g>
	<g>
		<polyline class="st7" points="73.18,199.18 73.18,239.88 37.86,260.26 2.61,239.88 2.61,199.18 37.86,178.8 73.18,199.18 		"/>
	</g>
	<g>
		<polyline class="st8" points="60.14,110.22 60.14,110.22 62.52,111.6 73.18,117.72 73.18,117.75 120.63,145.15 120.63,145.16 
			143.67,158.49 143.67,199.18 108.43,219.57 84.7,205.85 84.7,205.85 26.52,172.27 2.61,158.49 2.61,117.72 37.86,97.42 
			60.14,110.22 		"/>
	</g>
	<g>
		<polyline class="st9" points="61.85,29.79 61.88,29.73 122.37,64.61 122.32,64.68 143.67,77.04 143.67,117.72 108.43,138.11 
			73.18,117.72 73.18,117.72 37.96,97.36 37.86,97.42 2.61,77.04 2.61,36.33 37.86,15.95 61.85,29.79 		"/>
	</g>
</g>
</svg>
