<?xml version="1.0" encoding="utf-8"?>
<!-- Generator: Adobe Illustrator 25.1.0, SVG Export Plug-In . SVG Version: 6.00 Build 0)  -->
<svg version="1.1" id="Layer_1" xmlns="http://www.w3.org/2000/svg" xmlns:xlink="http://www.w3.org/1999/xlink" x="0px" y="0px"
	 viewBox="0 0 1220 273.3" style="enable-background:new 0 0 1220 273.3;" xml:space="preserve">
<style type="text/css">
	.st0{fill:#FFFFFF;}
	.st1{display:none;}
	.st2{display:inline;fill:#004568;}
	.st3{display:inline;fill:#89BA45;}
	.st4{display:inline;fill:#0CA4A5;}
	.st5{display:inline;fill:#1B93D0;}
</style>
<g>
	<path class="st0" d="M344.6,195h-68.2V84.1h21v92.7h47.2V195z"/>
	<path class="st0" d="M431.4,195h-72V84.1h71.3v16.5h-51.3v30.1h41.3v16.1h-41.3v31h52.1V195z"/>
	<path class="st0" d="M535.8,195h-22.3L490,138.5L468.6,167v28h-20V84.1h20v58.2c2.5-3.9,4.4-6.7,5.5-8.2l36.8-50h20.2l-26.3,36.5
		L535.8,195z"/>
	<path class="st0" d="M633,195h-20v-48.2h-42.3V195h-20V84.1h20v45.6H613V84.1h20V195z"/>
	<path class="st0" d="M744.3,195H723l-8.8-26.4h-42.6l-8.7,26.4h-17.1l36.8-110.9h24.6L744.3,195z M708.8,152.6l-16.2-49.5
		l-16.2,49.5H708.8z"/>
	<path class="st0" d="M746,168.3l19.4-4.1c2.3,11,11.3,16.5,26.8,16.5c7.1,0,12.5-1.4,16.4-4.2s5.7-6.3,5.7-10.5
		c0-3-0.9-5.8-2.6-8.4c-1.7-2.6-5.4-4.6-11.1-6.1l-21.2-5.5c-7.3-1.9-12.6-4.1-16.1-6.5c-3.5-2.4-6.2-5.8-8.3-10.2
		c-2.1-4.4-3.1-9.1-3.1-14.1c0-9.9,3.7-17.8,11-23.8c7.4-6,16.8-9,28.3-9c9.5,0,18,2.1,25.5,6.2c7.5,4.2,12.3,10.1,14.3,17.7
		l-19,4.7c-2.9-8.4-9.8-12.6-20.5-12.6c-6.2,0-11,1.3-14.2,3.9c-3.3,2.6-4.9,5.9-4.9,9.9c0,6.3,5.1,10.8,15.4,13.3l18.8,4.7
		c11.4,2.9,19.1,7.1,23,12.7c3.9,5.6,5.8,11.8,5.8,18.6c0,10.9-4.1,19.4-12.3,25.7c-8.2,6.2-18.8,9.4-31.9,9.4
		c-11,0-20.6-2.3-28.9-6.9C754.2,185.2,748.8,178,746,168.3z"/>
	<path class="st0" d="M924.7,195h-72V84.1H924v16.5h-51.3v30.1h41.3v16.1h-41.3v31h52.1V195z"/>
	<path class="st0" d="M1075.1,84.1L1045.4,195h-21l-22.1-81.6L982.3,195h-20.5L931.5,84.1h21.2l21.4,80.8l20-80.8h20.2l22.1,80.8
		l21-80.8C1057.4,84.1,1075.1,84.1,1075.1,84.1z"/>
	<path class="st0" d="M1170.5,195h-21.4l-8.8-26.4h-42.6L1089,195h-17.1l36.8-110.9h24.6L1170.5,195z M1135,152.6l-16.2-49.5
		l-16.2,49.5H1135z"/>
</g>
<g class="st1">
	<polyline class="st2" points="178,622.6 178,663.3 142.8,683.6 107.4,663.3 107.4,622.6 142.8,602.3 178,622.6 	"/>
	<polyline class="st3" points="36.9,704 36.9,744.7 1.6,765.1 -33.6,744.7 -33.6,704 1.6,683.6 36.9,704 	"/>
	<polyline class="st4" points="23.9,615.1 23.9,615.1 26.3,616.4 36.9,622.6 36.9,622.6 84.4,650 84.4,650 107.4,663.3 107.4,704 
		72.2,724.4 48.5,710.7 48.5,710.7 -9.7,677.1 -33.6,663.3 -33.6,622.6 1.6,602.3 23.9,615.1 	"/>
	<polyline class="st5" points="25.6,534.6 25.6,534.6 86.1,569.4 86.1,569.5 107.4,581.9 107.4,622.6 72.2,643 36.9,622.6 
		36.9,622.5 1.7,602.2 1.6,602.3 -33.6,581.9 -33.6,541.2 1.6,520.8 25.6,534.6 	"/>
	
		<text transform="matrix(1 0 0 1 227.9938 698.3757)" class="st2" style="font-family:'FranklinGothic-Medium'; font-size:166.3403px;">LEKHASE</text>
	
		<text transform="matrix(1 0 0 1 893.5138 698.3757)" class="st2" style="font-family:'FranklinGothic-Medium'; font-size:166.3403px; letter-spacing:-3;">W</text>
	
		<text transform="matrix(1 0 0 1 1035.1238 698.3757)" class="st2" style="font-family:'FranklinGothic-Medium'; font-size:166.3403px;">A</text>
</g>
<g>
	<g>
		<polyline class="st0" points="214.2,117.7 214.2,158.5 179,178.8 143.7,158.5 143.7,117.7 179,97.4 214.2,117.7 		"/>
	</g>
	<g>
		<polyline class="st0" points="73.2,199.2 73.2,239.9 37.9,260.3 2.6,239.9 2.6,199.2 37.9,178.8 73.2,199.2 		"/>
	</g>
	<g>
		<polyline class="st0" points="60.1,110.2 60.1,110.2 62.5,111.6 73.2,117.7 73.2,117.8 120.6,145.1 120.6,145.2 143.7,158.5 
			143.7,199.2 108.4,219.6 84.7,205.9 84.7,205.9 26.5,172.3 2.6,158.5 2.6,117.7 37.9,97.4 60.1,110.2 		"/>
	</g>
	<g>
		<polyline class="st0" points="61.8,29.8 61.9,29.7 122.4,64.6 122.3,64.7 143.7,77 143.7,117.7 108.4,138.1 73.2,117.7 
			73.2,117.7 38,97.4 37.9,97.4 2.6,77 2.6,36.3 37.9,15.9 61.8,29.8 		"/>
	</g>
</g>
</svg>
